<?xml version="1.0" encoding="UTF-8"?>
<svg version="1.1" xmlns="http://www.w3.org/2000/svg" width="225" height="225">
<path d="M0 0 C74.25 0 148.5 0 225 0 C225 74.25 225 148.5 225 225 C150.75 225 76.5 225 0 225 C0 150.75 0 76.5 0 0 Z " fill="#1E3FED" transform="translate(0,0)"/>
<path d="M0 0 C8.25 0 16.5 0 25 0 C25 74.25 25 148.5 25 225 C16.75 225 8.5 225 0 225 C0.0825 222.339375 0.165 219.67875 0.25 216.9375 C0.00160876 206.55022978 -4.44095454 201.25989927 -11.27978516 193.91699219 C-14.22260516 190.63753964 -16.80560911 187.09236308 -19.4375 183.5625 C-24.27321833 177.17993224 -29.25791673 170.93752474 -34.33129883 164.74291992 C-38.50418544 159.63864755 -42.54313799 154.44752035 -46.54296875 149.20703125 C-49.14402629 145.80145813 -51.78695649 142.42963388 -54.4375 139.0625 C-54.88947754 138.48822266 -55.34145508 137.91394531 -55.80712891 137.32226562 C-56.72912702 136.15137054 -57.65132947 134.98063633 -58.57373047 133.81005859 C-61.05085406 130.66637589 -63.52570398 127.52090837 -66 124.375 C-66.45689209 123.79500244 -66.91378418 123.21500488 -67.38452148 122.61743164 C-68.59308955 121.08096278 -69.79675518 119.54064117 -71 118 C-71.61875 117.29101562 -72.2375 116.58203125 -72.875 115.8515625 C-74 114 -74 114 -73.9609375 112.1171875 C-72.58719274 109.09048158 -70.68587357 106.73197256 -68.625 104.125 C-68.18019287 103.55837646 -67.73538574 102.99175293 -67.27709961 102.40795898 C-66.33356014 101.20740509 -65.38711694 100.0091284 -64.43798828 98.81298828 C-63.04454004 97.05615524 -61.65947181 95.29309102 -60.27734375 93.52734375 C-57.98712046 90.60282854 -55.69020251 87.68366153 -53.39111328 84.76611328 C-51.09125763 81.84628952 -48.79584055 78.92298107 -46.5 76 C-45.5833549 74.83331639 -44.66668823 73.66664973 -43.75 72.5 C-43.29625 71.9225 -42.8425 71.345 -42.375 70.75 C-27.25 51.5 -27.25 51.5 -25.87402344 49.7487793 C-24.96058321 48.58620425 -24.04717158 47.42360672 -23.13378906 46.26098633 C-17.1747488 38.67607658 -17.1747488 38.67607658 -14.66943359 35.49707031 C-13.72949591 34.29878719 -12.79483361 33.09634563 -11.86572266 31.88964844 C-9.92584932 29.37889204 -8.01870481 27.01900223 -5.7890625 24.75390625 C1.03199158 17.61268024 -0.06994133 9.44207926 0 0 Z " fill="#FEFEFE" transform="translate(200,0)"/>
<path d="M0 0 C8.25 0 16.5 0 25 0 C25 74.25 25 148.5 25 225 C16.75 225 8.5 225 0 225 C0 150.75 0 76.5 0 0 Z " fill="#FBFCFE" transform="translate(0,0)"/>
<path d="M0 0 C39.93 0 79.86 0 121 0 C118.25335349 4.80663139 115.68119432 8.90486265 112.25 13.125 C111.26936093 14.35299229 110.29029357 15.58224076 109.3125 16.8125 C108.78269531 17.47894531 108.25289063 18.14539063 107.70703125 18.83203125 C104.50849759 22.89424219 101.38074938 27.01046267 98.25 31.125 C97.57050293 32.01759521 96.89100586 32.91019043 96.19091797 33.82983398 C90.93781931 40.74222905 85.73481525 47.69137515 80.5378418 54.64599609 C74.13979725 63.1863916 67.58574918 71.60389916 61 80 C57.01052164 76.21288648 53.74664461 72.18174611 50.5 67.75 C49.43303006 66.31065026 48.36529677 64.87186613 47.296875 63.43359375 C46.75095703 62.69737793 46.20503906 61.96116211 45.64257812 61.20263672 C43.04231059 57.71577381 40.39749321 54.26356506 37.75 50.8125 C36.65879623 49.38806522 35.56765187 47.96358492 34.4765625 46.5390625 C33.91485352 45.8059082 33.35314453 45.07275391 32.77441406 44.31738281 C23.97546089 32.82595966 15.20812798 21.31043097 6.5 9.75 C5.84660645 8.88592529 5.19321289 8.02185059 4.52001953 7.1315918 C3.92560059 6.34051025 3.33118164 5.54942871 2.71875 4.734375 C2.19216797 4.03538086 1.66558594 3.33638672 1.12304688 2.61621094 C0 1 0 1 0 0 Z " fill="#FDFEFE" transform="translate(53,17)"/>
<path d="M0 0 C4.06910157 3.86825012 7.4455284 8.01490603 10.8125 12.5 C11.9687236 14.02606167 13.12497485 15.55210239 14.28125 17.078125 C14.88710937 17.88056641 15.49296875 18.68300781 16.1171875 19.50976562 C18.67337508 22.89061538 21.24386975 26.26046112 23.81445312 29.63037109 C25.83618322 32.28105095 27.85574553 34.93337141 29.875 37.5859375 C32.64175629 41.21927763 35.41293557 44.84918186 38.1875 48.4765625 C44.34356447 56.52930558 50.48801502 64.58881741 56.5 72.75 C56.96317627 73.37632324 57.42635254 74.00264648 57.90356445 74.64794922 C61 78.87831624 61 78.87831624 61 80 C21.07 80 -18.86 80 -60 80 C-53.28455285 69.92682927 -53.28455285 69.92682927 -49.625 65.25 C-48.75460456 64.13067757 -47.88486074 63.01084826 -47.015625 61.890625 C-46.53931641 61.27767578 -46.06300781 60.66472656 -45.57226562 60.03320312 C-42.4839072 56.03943776 -39.43208246 52.01772177 -36.375 48 C-34.99222232 46.18356724 -33.60940932 44.36716137 -32.2265625 42.55078125 C-31.52950195 41.63506348 -30.83244141 40.7193457 -30.11425781 39.77587891 C-28.02310499 37.03033531 -25.92987364 34.28639002 -23.8359375 31.54296875 C-15.84087239 21.06546535 -7.88618845 10.55972582 0 0 Z " fill="#FEFEFE" transform="translate(113,128)"/>
<path d="M0 0 C16.83 0 33.66 0 51 0 C48.34658974 4.64346795 46.4550751 7.88866778 43.125 11.75 C38.97751472 16.71204867 35.12290313 21.83794837 31.3125 27.0625 C25.95696707 34.39864669 20.46743061 41.60987477 14.85571289 48.75170898 C10.89329838 53.80657812 7.1040507 58.94065704 3.453125 64.2265625 C2.73382813 65.10441406 2.73382813 65.10441406 2 66 C1.34 66 0.68 66 0 66 C0 44.22 0 22.44 0 0 Z " fill="#FCFCFE" transform="translate(44,121)"/>
<path d="M0 0 C5.62131519 5.62131519 5.62131519 5.62131519 7.65625 8.390625 C8.11418945 9.00832764 8.57212891 9.62603027 9.04394531 10.26245117 C9.52444336 10.91834229 10.00494141 11.5742334 10.5 12.25 C11.56696994 13.68934974 12.63470323 15.12813387 13.703125 16.56640625 C14.24904297 17.30262207 14.79496094 18.03883789 15.35742188 18.79736328 C17.95768947 22.28422627 20.60251369 25.7364295 23.25 29.1875 C24.32817815 30.59501137 25.40630163 32.00256462 26.484375 33.41015625 C27.04447266 34.14121582 27.60457031 34.87227539 28.18164062 35.62548828 C31.6251615 40.12222352 35.0636649 44.62277194 38.5 49.125 C39.17063477 50.0018042 39.84126953 50.8786084 40.53222656 51.78198242 C51 65.50278933 51 65.50278933 51 67 C34.17 67 17.34 67 0 67 C0 44.89 0 22.78 0 0 Z " fill="#FCFCFE" transform="translate(44,37)"/>
</svg>
