<?xml version="1.0" encoding="UTF-8"?>
<svg version="1.1" xmlns="http://www.w3.org/2000/svg" width="400" height="400">
<path d="M0 0 C132 0 264 0 400 0 C400 132 400 264 400 400 C268 400 136 400 0 400 C0 268 0 136 0 0 Z " fill="#FEFEFE" transform="translate(0,0)"/>
<path d="M0 0 C4.44484218 1.9173829 6.36623774 4.36573084 8.71875 8.4296875 C12.14923519 14.26789142 15.71917727 20.01089508 19.3125 25.75 C19.96895508 26.79969971 20.62541016 27.84939941 21.30175781 28.9309082 C25.57332447 35.75100804 29.88440745 42.54283707 34.265625 49.29296875 C35.12414062 50.63294922 35.12414062 50.63294922 36 52 C36.56460938 52.85207031 37.12921875 53.70414063 37.7109375 54.58203125 C39.73783935 58.38400776 39.54986814 61.79961841 39 66 C36.9688987 71.1905922 35.4468889 71.27655555 30 74 C25.05 74 20.1 74 15 74 C15 98.75 15 123.5 15 149 C5.76 149.33 -3.48 149.66 -13 150 C-16.96 151.98 -16.96 151.98 -21 154 C-21.66 154 -22.32 154 -23 154 C-23 127.6 -23 101.2 -23 74 C-28.28 74 -33.56 74 -39 74 C-46.32786885 69.1147541 -46.32786885 69.1147541 -48 64 C-47.98280596 56.2282958 -44.5214906 51.4983946 -40.1875 45.25 C-38.81189909 43.21049142 -37.43955612 41.16878204 -36.0703125 39.125 C-35.38356445 38.10277344 -34.69681641 37.08054688 -33.98925781 36.02734375 C-31.02915233 31.5225195 -28.28995942 26.89806768 -25.5625 22.25 C-11.51934442 -1.50424429 -11.51934442 -1.50424429 0 0 Z " fill="#468BFC" transform="translate(184,58)"/>
<path d="M0 0 C1.85615061 1.26793387 3.71030644 2.53879266 5.5625 3.8125 C7.40755138 4.95238791 9.26127982 6.07839851 11.125 7.1875 C12.33349609 7.91066406 12.33349609 7.91066406 13.56640625 8.6484375 C14.87496281 9.41154876 16.20760987 10.13505493 17.5625 10.8125 C17.5625 11.4725 17.5625 12.1325 17.5625 12.8125 C18.27921875 13.07417969 18.9959375 13.33585937 19.734375 13.60546875 C22.67482496 14.86043979 25.14541256 16.36643796 27.8125 18.125 C32.62112498 21.24375541 37.51177425 24.10630867 42.5625 26.8125 C42.5625 27.4725 42.5625 28.1325 42.5625 28.8125 C43.325625 29.06 44.08875 29.3075 44.875 29.5625 C47.97224934 31.00308109 49.03761304 31.76272608 50.5625 34.8125 C51.09425469 40.39592428 50.89720688 43.16434183 47.5625 47.8125 C41.6290567 53.00299071 34.76848338 56.95011881 27.9375 60.828125 C23.1008442 63.67189947 18.42558674 66.74956003 13.72924805 69.81762695 C9.06475482 72.85876874 4.35970653 75.79748453 -0.45703125 78.59375 C-2.50253459 79.7914002 -2.50253459 79.7914002 -4.42578125 81.44140625 C-7.88536627 83.79929818 -11.41239307 83.44033297 -15.4375 82.8125 C-20.52086397 80.31703041 -21.26602881 79.24117798 -23.4375 73.8125 C-23.4375 68.5325 -23.4375 63.2525 -23.4375 57.8125 C-49.1775 57.8125 -74.9175 57.8125 -101.4375 57.8125 C-98.9625 52.8625 -98.9625 52.8625 -96.4375 47.8125 C-95.3740097 44.62202911 -95.20163663 42.16837755 -95.125 38.8125 C-95.08761719 37.760625 -95.05023438 36.70875 -95.01171875 35.625 C-95.43551881 30.47464252 -95.43551881 30.47464252 -99.4375 20.8125 C-74.3575 20.8125 -49.2775 20.8125 -23.4375 20.8125 C-23.4375 15.2025 -23.4375 9.5925 -23.4375 3.8125 C-19.4375 -2.1875 -19.4375 -2.1875 -17.25 -3.625 C-10.50227986 -4.97454403 -5.78203831 -3.69657895 0 0 Z " fill="#FBBA14" transform="translate(302.4375,198.1875)"/>
<path d="M0 0 C6.13822053 3.30519567 9.12999972 5.94368332 11.25 12.75 C12.22421881 19.35567873 10.76554744 24.06320717 7.25 29.75 C4.82525953 32.64109022 2.15007363 35.22516861 -0.578125 37.828125 C-1.32713074 38.56198425 -2.07613647 39.29584351 -2.84783936 40.05194092 C-5.22240392 42.37794006 -7.60945995 44.69042986 -10 47 C-13.16244736 50.05627407 -16.31155568 53.12541113 -19.453125 56.203125 C-20.18428528 56.90109192 -20.91544556 57.59905884 -21.66876221 58.31817627 C-22.33655701 58.97275818 -23.00435181 59.62734009 -23.69238281 60.30175781 C-24.28432434 60.87275208 -24.87626587 61.44374634 -25.48614502 62.03204346 C-27.14505917 63.93154193 -27.14505917 63.93154193 -26.75 67.75 C-26.15574219 68.0078125 -25.56148438 68.265625 -24.94921875 68.53125 C-22.572493 69.84836977 -21.28214427 71.16343934 -19.5625 73.25 C-19.05332031 73.8584375 -18.54414063 74.466875 -18.01953125 75.09375 C-15.31855507 78.61748508 -15.45253742 81.362427 -15.75 85.75 C-17.45049568 89.4910905 -19.32750211 91.53916632 -22.75 93.75 C-25.46606445 94.62207031 -25.46606445 94.62207031 -28.61328125 95.328125 C-30.38723267 95.73417969 -30.38723267 95.73417969 -32.19702148 96.1484375 C-33.47262939 96.42945313 -34.7482373 96.71046875 -36.0625 97 C-37.39217797 97.29872566 -38.72168404 97.59821744 -40.05102539 97.8984375 C-42.13162553 98.36762481 -44.21248711 98.83542774 -46.2943573 99.2989502 C-50.61775828 100.26227698 -54.93182161 101.25837051 -59.2403717 102.28607178 C-62.04489917 102.95473047 -64.85169017 103.61356741 -67.65878296 104.2713623 C-69.00137773 104.58812233 -70.34305806 104.9087859 -71.68374634 105.23352051 C-73.56632333 105.68821934 -75.45303847 106.12567855 -77.33984375 106.5625 C-78.41097412 106.81644531 -79.48210449 107.07039063 -80.58569336 107.33203125 C-85.46415791 107.97642067 -89.36216851 107.6135396 -93.5625 105 C-96.01097114 102.48157255 -96.98818798 101.1781541 -97.75 97.75 C-97.1908182 90.42829943 -95.71910612 83.39470221 -94.1328125 76.234375 C-93.74607864 74.4733847 -93.74607864 74.4733847 -93.35153198 72.67681885 C-92.80763876 70.20880201 -92.26121777 67.74134101 -91.71240234 65.27441406 C-90.87504038 61.50018202 -90.05243525 57.7229233 -89.23046875 53.9453125 C-88.69881426 51.54146797 -88.16629207 49.13781515 -87.6328125 46.734375 C-87.26701584 45.04365875 -87.26701584 45.04365875 -86.89382935 43.31878662 C-86.65703461 42.2670929 -86.42023987 41.21539917 -86.17626953 40.13183594 C-85.97276886 39.21078064 -85.76926819 38.28972534 -85.55960083 37.34075928 C-84.25220493 33.15703327 -82.13434199 29.57028499 -78.75 26.75 C-75.13069302 25.54356434 -72.55768995 25.42731441 -68.75 25.75 C-63.56748778 28.44922511 -59.73508532 32.5526912 -55.75 36.75 C-52.72943668 35.39962051 -50.66848807 33.90357018 -48.36181641 31.54125977 C-47.72079987 30.89040909 -47.07978333 30.23955841 -46.41934204 29.56898499 C-45.73697479 28.866884 -45.05460754 28.16478302 -44.3515625 27.44140625 C-42.88814242 25.95756237 -41.42459684 24.47384225 -39.9609375 22.99023438 C-37.66537179 20.65120321 -35.37232888 18.30976603 -33.08203125 15.96557617 C-30.86587429 13.70102421 -28.64049645 11.44584832 -26.4140625 9.19140625 C-25.73574371 8.4913295 -25.05742493 7.79125275 -24.35855103 7.06996155 C-16.95591876 -0.40908447 -10.25916598 -3.41972199 0 0 Z " fill="#FC9A9C" transform="translate(185.75,219.25)"/>
<path d="M0 0 C5.07680907 1.01536181 8.39788074 1.85438148 11.54370117 6.06738281 C11.97658447 6.85467773 12.40946777 7.64197266 12.85546875 8.453125 C13.35997559 9.34193359 13.86448242 10.23074219 14.38427734 11.14648438 C14.91746582 12.08814453 15.4506543 13.02980469 16 14 C17.17359718 15.91761226 18.35748644 17.82895782 19.55078125 19.734375 C20.46875488 21.2042688 20.46875488 21.2042688 21.40527344 22.70385742 C22.0346582 23.70908447 22.66404297 24.71431152 23.3125 25.75 C23.96895508 26.79969971 24.62541016 27.84939941 25.30175781 28.9309082 C29.57332447 35.75100804 33.88440745 42.54283707 38.265625 49.29296875 C39.12414062 50.63294922 39.12414062 50.63294922 40 52 C40.56460938 52.85207031 41.12921875 53.70414063 41.7109375 54.58203125 C43.73783935 58.38400776 43.54986814 61.79961841 43 66 C40.9688987 71.1905922 39.4468889 71.27655555 34 74 C29.05 74 24.1 74 19 74 C19 98.75 19 123.5 19 149 C12.73 149 6.46 149 0 149 C0 99.83 0 50.66 0 0 Z " fill="#8EBCFA" transform="translate(180,58)"/>
<path d="M0 0 C1.85615061 1.26793387 3.71030644 2.53879266 5.5625 3.8125 C7.40755138 4.95238791 9.26127982 6.07839851 11.125 7.1875 C12.33349609 7.91066406 12.33349609 7.91066406 13.56640625 8.6484375 C14.87496281 9.41154876 16.20760987 10.13505493 17.5625 10.8125 C17.5625 11.4725 17.5625 12.1325 17.5625 12.8125 C18.27921875 13.07417969 18.9959375 13.33585937 19.734375 13.60546875 C22.67482496 14.86043979 25.14541256 16.36643796 27.8125 18.125 C32.62112498 21.24375541 37.51177425 24.10630867 42.5625 26.8125 C42.5625 27.4725 42.5625 28.1325 42.5625 28.8125 C43.325625 29.06 44.08875 29.3075 44.875 29.5625 C47.97224934 31.00308109 49.03761304 31.76272608 50.5625 34.8125 C50.80221845 37.53278325 50.6995618 40.07126407 50.5625 42.8125 C50.2325 41.4925 49.9025 40.1725 49.5625 38.8125 C2.0425 38.8125 -45.4775 38.8125 -94.4375 38.8125 C-95.4275 33.3675 -95.4275 33.3675 -96.4375 27.8125 C-97.4275 25.5025 -98.4175 23.1925 -99.4375 20.8125 C-74.3575 20.8125 -49.2775 20.8125 -23.4375 20.8125 C-23.4375 15.2025 -23.4375 9.5925 -23.4375 3.8125 C-19.4375 -2.1875 -19.4375 -2.1875 -17.25 -3.625 C-10.50227986 -4.97454403 -5.78203831 -3.69657895 0 0 Z " fill="#F5D785" transform="translate(302.4375,198.1875)"/>
<path d="M0 0 C1.010625 0.515625 2.02125 1.03125 3.0625 1.5625 C4.0525 2.0575 4.0525 2.0575 5.0625 2.5625 C5.0625 5.5625 5.0625 5.5625 3.1875 7.75 C1.0625 9.5625 1.0625 9.5625 -0.9375 9.5625 C-1.5975 10.8825 -2.2575 12.2025 -2.9375 13.5625 C-3.5975 13.5625 -4.2575 13.5625 -4.9375 13.5625 C-5.5975 14.8825 -6.2575 16.2025 -6.9375 17.5625 C-7.5975 17.5625 -8.2575 17.5625 -8.9375 17.5625 C-9.164375 18.119375 -9.39125 18.67625 -9.625 19.25 C-12.94747557 25.10388554 -19.16803969 29.57371261 -24.12109375 34.1015625 C-26.72357945 36.48972585 -29.27146591 38.88974091 -31.71875 41.4375 C-33.9375 43.5625 -33.9375 43.5625 -35.9375 43.5625 C-36.18371094 44.13742187 -36.42992187 44.71234375 -36.68359375 45.3046875 C-38.13543053 47.91889827 -39.84037549 49.62586208 -42 51.6875 C-44.85321933 54.34155 -44.85321933 54.34155 -46.9375 57.5625 C-47.5975 57.5625 -48.2575 57.5625 -48.9375 57.5625 C-48.9375 58.2225 -48.9375 58.8825 -48.9375 59.5625 C-50.37988281 60.98583984 -50.37988281 60.98583984 -52.390625 62.6484375 C-57.0516819 66.61341586 -61.37375904 70.85077285 -65.6875 75.1875 C-66.42871094 75.92484375 -67.16992188 76.6621875 -67.93359375 77.421875 C-71.5023342 80.99702252 -74.81031452 84.58955299 -77.9375 88.5625 C-79.15584517 89.70149916 -80.40579724 90.80779708 -81.6875 91.875 C-85.99877647 95.55417202 -89.97931655 99.5095728 -93.9375 103.5625 C-96.57560123 101.72729914 -96.96665781 100.43656325 -97.70019531 97.26831055 C-98.35519404 91.09890485 -96.67865915 85.24688785 -95.296875 79.26953125 C-95.01402649 78.00533859 -94.73117798 76.74114594 -94.4397583 75.43864441 C-93.84270896 72.7749112 -93.23661919 70.11345642 -92.62353516 67.45336914 C-91.84055373 64.05406154 -91.07745094 60.65066809 -90.3206749 57.24544239 C-89.59290723 53.98050546 -88.85073971 50.71890836 -88.109375 47.45703125 C-87.83736267 46.23925491 -87.56535034 45.02147858 -87.28509521 43.76679993 C-87.02182434 42.6317955 -86.75855347 41.49679108 -86.48730469 40.32739258 C-86.26000671 39.33226151 -86.03270874 38.33713043 -85.79852295 37.31184387 C-84.46697864 33.06007195 -82.38160788 29.4325899 -78.9375 26.5625 C-75.31819302 25.35606434 -72.74518995 25.23981441 -68.9375 25.5625 C-63.75498778 28.26172511 -59.92258532 32.3651912 -55.9375 36.5625 C-52.91693668 35.21212051 -50.85598807 33.71607018 -48.54931641 31.35375977 C-47.90829987 30.70290909 -47.26728333 30.05205841 -46.60684204 29.38148499 C-45.92447479 28.679384 -45.24210754 27.97728302 -44.5390625 27.25390625 C-43.07564242 25.77006237 -41.61209684 24.28634225 -40.1484375 22.80273438 C-37.85287179 20.46370321 -35.55982888 18.12226603 -33.26953125 15.77807617 C-31.05337429 13.51352421 -28.82799645 11.25834832 -26.6015625 9.00390625 C-25.92324371 8.3038295 -25.24492493 7.60375275 -24.54605103 6.88246155 C-17.39833385 -0.33903801 -9.93725397 -4.20263033 0 0 Z " fill="#FA363C" transform="translate(185.9375,219.4375)"/>
<path d="M0 0 C0 49.17 0 98.34 0 149 C-5.94 149.99 -5.94 149.99 -12 151 C-13.65 151.99 -15.3 152.98 -17 154 C-17.66 154 -18.32 154 -19 154 C-19 127.6 -19 101.2 -19 74 C-16.11371515 76.88628485 -16.72226361 78.97741209 -16.68115234 83.02001953 C-16.66608391 84.10310394 -16.66608391 84.10310394 -16.65071106 85.20806885 C-16.61976928 87.59964181 -16.60281374 89.99110229 -16.5859375 92.3828125 C-16.56723466 94.03906225 -16.54766192 95.69530239 -16.5272522 97.35153198 C-16.47583145 101.71460309 -16.43625914 106.07770512 -16.39910889 110.44091797 C-16.35913138 114.89168002 -16.3080106 119.34231232 -16.2578125 123.79296875 C-16.16093557 132.52855734 -16.07656868 141.26420992 -16 150 C-14.02 149.67 -12.04 149.34 -10 149 C-9.67 147.35 -9.34 145.7 -9 144 C-7.35 144.33 -5.7 144.66 -4 145 C-2.297612 141.28979533 -1.75049801 138.40280368 -1.75276184 134.33175659 C-1.74856735 133.20172211 -1.74437286 132.07168762 -1.74005127 130.90740967 C-1.74848053 129.0619455 -1.74848053 129.0619455 -1.75708008 127.17919922 C-1.75518173 125.87630951 -1.75328339 124.5734198 -1.75132751 123.23104858 C-1.74648917 119.66509435 -1.75412157 116.09926568 -1.76428056 112.53332663 C-1.7730752 108.80046835 -1.77130336 105.06761384 -1.7709198 101.33474731 C-1.77185564 95.06868391 -1.78052994 88.802669 -1.79418945 82.53662109 C-1.80992782 75.29011309 -1.81518703 68.04365814 -1.8144539 60.79713428 C-1.81384382 53.82552471 -1.81894657 46.85393242 -1.82724571 39.88232803 C-1.83077783 36.91508983 -1.83260885 33.94785773 -1.83313942 30.98061752 C-1.83432934 26.84105671 -1.84403655 22.70155885 -1.85473633 18.56201172 C-1.85428314 17.32765381 -1.85382996 16.0932959 -1.85336304 14.8215332 C-1.85762802 13.69713837 -1.86189301 12.57274353 -1.86628723 11.41427612 C-1.86796308 10.43537352 -1.86963892 9.45647091 -1.87136555 8.44790459 C-1.89846358 5.86126163 -1.89846358 5.86126163 -3 3 C-5.13875077 4.01760473 -5.13875077 4.01760473 -7 6 C-7.04401732 8.33291811 -7.03954234 10.66700175 -7 13 C-8.39461971 16.45334405 -9.80585673 19.91152171 -13 22 C-15.6875 21.6875 -15.6875 21.6875 -18 21 C-18.99 23.475 -18.99 23.475 -20 26 C-20.66 26 -21.32 26 -22 26 C-22.33 27.32 -22.66 28.64 -23 30 C-23.66 30 -24.32 30 -25 30 C-25.33 30.99 -25.66 31.98 -26 33 C-26.33 32.34 -26.66 31.68 -27 31 C-25.80004883 28.64916992 -25.80004883 28.64916992 -23.95703125 25.73046875 C-23.29509766 24.67666016 -22.63316406 23.62285156 -21.95117188 22.53710938 C-21.24541016 21.43173828 -20.53964844 20.32636719 -19.8125 19.1875 C-19.12607422 18.09373047 -18.43964844 16.99996094 -17.73242188 15.87304688 C-7.7017396 0 -7.7017396 0 0 0 Z " fill="#508CF4" transform="translate(180,58)"/>
<path d="M0 0 C47.52 0 95.04 0 144 0 C144 7 144 7 141.6875 9.5 C140.48103984 10.36588049 139.24716305 11.19384898 138 12 C137.09507812 12.60328125 136.19015625 13.2065625 135.2578125 13.828125 C127.6783241 18.77389197 127.6783241 18.77389197 124 20 C124.33 18.35 124.66 16.7 125 15 C126.98 15 128.96 15 131 15 C130.49287967 11.28111761 129.88391785 8.26545761 128 5 C128.66 5 129.32 5 130 5 C129.67 4.34 129.34 3.68 129 3 C86.76 2.67 44.52 2.34 1 2 C1 4.31 1 6.62 1 9 C0.01 9.66 -0.98 10.32 -2 11 C-1.34 7.37 -0.68 3.74 0 0 Z " fill="#F8BB22" transform="translate(208,237)"/>
<path d="M0 0 C0 0.33 0 0.66 0 1 C-0.67546875 1.07476562 -1.3509375 1.14953125 -2.046875 1.2265625 C-3.38492188 1.42378906 -3.38492188 1.42378906 -4.75 1.625 C-5.63171875 1.74101562 -6.5134375 1.85703125 -7.421875 1.9765625 C-10.86061253 3.05877489 -10.86061253 3.05877489 -14 9 C-14.33 14.61 -14.66 20.22 -15 26 C-40.08 26 -65.16 26 -91 26 C-90.01 24.515 -90.01 24.515 -89 23 C-86.0640564 22.63923645 -86.0640564 22.63923645 -82.25537109 22.65942383 C-81.56257553 22.65898575 -80.86977997 22.65854767 -80.1559906 22.65809631 C-77.86152149 22.66018968 -75.56777926 22.68354532 -73.2734375 22.70703125 C-71.68446248 22.71262529 -70.09548229 22.71689629 -68.50650024 22.71989441 C-64.32077797 22.73135842 -60.13536714 22.76083869 -55.94976807 22.79400635 C-51.68009657 22.82467389 -47.41037484 22.83839263 -43.140625 22.85351562 C-34.76027361 22.88570716 -26.38017553 22.93692197 -18 23 C-18.01160156 22.18015625 -18.02320313 21.3603125 -18.03515625 20.515625 C-18.04417969 19.43796875 -18.05320312 18.3603125 -18.0625 17.25 C-18.07410156 16.18265625 -18.08570313 15.1153125 -18.09765625 14.015625 C-18.01510087 11.46631499 -17.74617558 9.42066409 -17 7 C-16.34 7 -15.68 7 -15 7 C-14.7215625 5.8553125 -14.7215625 5.8553125 -14.4375 4.6875 C-13 2 -13 2 -9.75 0.125 C-5.89041695 -1.03287491 -3.84040159 -1.03035165 0 0 Z " fill="#FEFBE4" transform="translate(294,193)"/>
<path d="M0 0 C2.94537436 2.75452937 5.04736782 5.4499779 7.0625 8.9375 C7.54847656 9.77152344 8.03445312 10.60554688 8.53515625 11.46484375 C9.01855469 12.30144531 9.50195312 13.13804688 10 14 C10.82177734 15.25490234 10.82177734 15.25490234 11.66015625 16.53515625 C13.7381493 20.35793646 13.5551741 23.75908677 13 28 C10.9688987 33.1905922 9.4468889 33.27655555 4 36 C-0.95 36 -5.9 36 -11 36 C-11 60.75 -11 85.5 -11 111 C-11.33 111 -11.66 111 -12 111 C-12 85.59 -12 60.18 -12 34 C-7.96423344 32.99105836 -4.36293071 32.88696304 -0.25 32.9375 C0.79607422 32.94426758 0.79607422 32.94426758 1.86328125 32.95117188 C3.57555803 32.9628998 5.28779033 32.98083347 7 33 C7 32.34 7 31.68 7 31 C7.66 31 8.32 31 9 31 C9.82622671 25.39436958 10.06795656 20.57710648 9 15 C8.34 15 7.68 15 7 15 C6.74605469 14.43410156 6.49210937 13.86820313 6.23046875 13.28515625 C5.88628906 12.55167969 5.54210937 11.81820312 5.1875 11.0625 C4.85105469 10.33160156 4.51460937 9.60070312 4.16796875 8.84765625 C3.06399866 6.66970511 3.06399866 6.66970511 0 6 C0 4.02 0 2.04 0 0 Z " fill="#ABC6EB" transform="translate(210,96)"/>
<path d="M0 0 C2.88628485 2.88628485 2.27773639 4.97741209 2.31884766 9.02001953 C2.32889328 9.74207581 2.3389389 10.46413208 2.34928894 11.20806885 C2.38023072 13.59964181 2.39718626 15.99110229 2.4140625 18.3828125 C2.43276534 20.03906225 2.45233808 21.69530239 2.4727478 23.35153198 C2.52416855 27.71460309 2.56374086 32.07770512 2.60089111 36.44091797 C2.64086862 40.89168002 2.6919894 45.34231232 2.7421875 49.79296875 C2.83906443 58.52855734 2.92343132 67.26420992 3 76 C5.97 75.505 5.97 75.505 9 75 C9 74.34 9 73.68 9 73 C12.3 73 15.6 73 19 73 C19 73.66 19 74.32 19 75 C17.78763672 75.16435547 17.78763672 75.16435547 16.55078125 75.33203125 C15.48214844 75.49058594 14.41351563 75.64914063 13.3125 75.8125 C12.25675781 75.96332031 11.20101562 76.11414063 10.11328125 76.26953125 C6.89035664 77.02572561 4.76736092 78.23102148 2 80 C1.34 80 0.68 80 0 80 C0 53.6 0 27.2 0 0 Z " fill="#548CDF" transform="translate(161,132)"/>
<path d="M0 0 C24.75 0 49.5 0 75 0 C74.67 1.65 74.34 3.3 74 5 C73.47432434 4.67657623 72.94864868 4.35315247 72.40704346 4.01992798 C69.32026334 2.7119776 66.83954198 2.71953674 63.48730469 2.68115234 C62.52082504 2.66608391 62.52082504 2.66608391 61.53482056 2.65071106 C59.41384744 2.61992177 57.2930003 2.60285622 55.171875 2.5859375 C53.69784464 2.56722238 52.22382495 2.5476487 50.74981689 2.5272522 C46.87669166 2.47596115 43.00353171 2.43631938 39.13024902 2.39910889 C35.17528719 2.35905017 31.22046942 2.30796637 27.265625 2.2578125 C19.51051556 2.1610891 11.75533633 2.07667301 4 2 C4.32597168 2.93279785 4.65194336 3.8655957 4.98779297 4.82666016 C5.97333396 7.91640011 6.21187905 10.16047531 6.125 13.375 C6.10695312 14.24898437 6.08890625 15.12296875 6.0703125 16.0234375 C6.03550781 17.00183594 6.03550781 17.00183594 6 18 C5.67 18 5.34 18 5 18 C4.89042969 17.28714844 4.78085938 16.57429688 4.66796875 15.83984375 C4.43013672 14.40318359 4.43013672 14.40318359 4.1875 12.9375 C3.96126953 11.52791016 3.96126953 11.52791016 3.73046875 10.08984375 C2.91642587 6.25113703 2.91642587 6.25113703 0 0 Z " fill="#EADA99" transform="translate(203,219)"/>
<path d="M0 0 C47.52 0 95.04 0 144 0 C144 2.31 144 4.62 144 7 C142 8.9375 142 8.9375 140 10 C140 8.68 140 7.36 140 6 C140.99 6 141.98 6 143 6 C143 4.35 143 2.7 143 1 C96.14 1 49.28 1 1 1 C1 3.64 1 6.28 1 9 C0.01 9.66 -0.98 10.32 -2 11 C-1.34 7.37 -0.68 3.74 0 0 Z " fill="#F7C852" transform="translate(208,237)"/>
<path d="M0 0 C0.99 0.495 0.99 0.495 2 1 C2 1.99 2 2.98 2 4 C-45.19 4 -92.38 4 -141 4 C-141 3.67 -141 3.34 -141 3 C-94.8 3 -48.6 3 -1 3 C-0.67 2.01 -0.34 1.02 0 0 Z " fill="#FCD875" transform="translate(350,233)"/>
<path d="M0 0 C25.41 0 50.82 0 77 0 C77.495 7.92 77.495 7.92 78 16 C78.3755075 20.86381542 78.3755075 20.86381542 80.765625 22.2421875 C83.08410194 23.02852409 85.35203373 23.63130106 87.75 24.125 C88.54921875 24.29257812 89.3484375 24.46015625 90.171875 24.6328125 C90.77515625 24.75398438 91.3784375 24.87515625 92 25 C92 25.33 92 25.66 92 26 C87.42380243 26.07756267 83.48677582 25.89735516 79 25 C77.515 25.495 77.515 25.495 76 26 C76 25.01 76 24.02 76 23 C76.66 23 77.32 23 78 23 C77.505 22.154375 77.01 21.30875 76.5 20.4375 C75 16 75 16 75 1 C50.25 1 25.5 1 0 1 C0 0.67 0 0.34 0 0 Z " fill="#FFFCCD" transform="translate(202,256)"/>
<path d="M0 0 C0.33 0 0.66 0 1 0 C0.90460938 0.84304688 0.80921875 1.68609375 0.7109375 2.5546875 C0.60007812 3.65039062 0.48921875 4.74609375 0.375 5.875 C0.25898437 6.96554687 0.14296875 8.05609375 0.0234375 9.1796875 C0.01570313 10.11039062 0.00796875 11.04109375 0 12 C0.66 12.66 1.32 13.32 2 14 C2.33 14.99 2.66 15.98 3 17 C3.66 17 4.32 17 5 17 C5.2475 16.0925 5.495 15.185 5.75 14.25 C7.04806201 10.87503877 8.21971841 9.25897879 11 7 C11.66 7 12.32 7 13 7 C13 6.34 13 5.68 13 5 C15.31 5 17.62 5 20 5 C13.66666667 11.33333333 7.33333333 17.66666667 1 24 C-1.88371701 21.42803618 -2.6942358 19.44628462 -3.08203125 15.5390625 C-2.91055921 10.23159444 -1.37719849 5.10419329 0 0 Z " fill="#F63941" transform="translate(91,299)"/>
<path d="M0 0 C2.22265625 1.515625 2.22265625 1.515625 4 3 C3.09636719 2.96519531 2.19273438 2.93039063 1.26171875 2.89453125 C-0.50751953 2.85392578 -0.50751953 2.85392578 -2.3125 2.8125 C-3.48425781 2.77769531 -4.65601563 2.74289063 -5.86328125 2.70703125 C-8.95089569 2.73031532 -8.95089569 2.73031532 -10.85546875 4.32421875 C-13.90794187 8.79353946 -12.9415922 13.7158957 -12.7421875 18.87109375 C-13.02280969 22.27682669 -13.69793999 23.54728161 -16 26 C-15.34 26 -14.68 26 -14 26 C-14.33 26.66 -14.66 27.32 -15 28 C-15.99 28.33 -16.98 28.66 -18 29 C-18.59070014 30.94603274 -18.59070014 30.94603274 -19 33 C-19.66 33.66 -20.32 34.32 -21 35 C-20.31646089 28.6624037 -19.16401345 22.52625476 -17.75 16.3125 C-17.55792969 15.38888672 -17.36585937 14.46527344 -17.16796875 13.51367188 C-15.90413645 7.99334777 -14.68673003 4.57326777 -10 1 C-6.43528609 -0.18823797 -3.7441664 -0.26274852 0 0 Z " fill="#E1484D" transform="translate(117,245)"/>
<path d="M0 0 C0.33 0 0.66 0 1 0 C1 24.09 1 48.18 1 73 C-4.94 73 -10.88 73 -17 73 C-17 72.34 -17 71.68 -17 71 C-13.37 71 -9.74 71 -6 71 C-6 70.34 -6 69.68 -6 69 C-5.360625 69.185625 -4.72125 69.37125 -4.0625 69.5625 C-3.381875 69.706875 -2.70125 69.85125 -2 70 C-0.13974079 68.13974079 -0.82627572 65.03970281 -0.79467773 62.55249023 C-0.77982834 61.54277664 -0.77982834 61.54277664 -0.76467896 60.51266479 C-0.73298162 58.27801075 -0.70827426 56.04333542 -0.68359375 53.80859375 C-0.66303131 52.26302016 -0.64203504 50.71745228 -0.62062073 49.17189026 C-0.56532663 45.09649268 -0.51594987 41.02104375 -0.46777344 36.94555664 C-0.41761183 32.7898296 -0.36189796 28.63417748 -0.30664062 24.47851562 C-0.19896936 16.3190737 -0.09754448 8.15956924 0 0 Z " fill="#99BBE6" transform="translate(197,134)"/>
<path d="M0 0 C2.0625 1.6875 2.0625 1.6875 4 4 C3.83849795 7.39154295 3.41703243 8.58296757 1 11 C0.56494141 11.98419922 0.56494141 11.98419922 0.12109375 12.98828125 C-1.25286568 15.45374851 -2.39693685 16.02839763 -4.9375 17.1875 C-5.97197266 17.67283203 -5.97197266 17.67283203 -7.02734375 18.16796875 C-8.65495717 18.85446708 -10.32418233 19.44139411 -12 20 C-12 20.66 -12 21.32 -12 22 C-12.928125 22.3403125 -12.928125 22.3403125 -13.875 22.6875 C-16.61410209 24.37929835 -17.05024472 25.99244161 -18 29 C-19.32 28.67 -20.64 28.34 -22 28 C-22 28.66 -22 29.32 -22 30 C-23.65 29.67 -25.3 29.34 -27 29 C-23.91667361 25.63228913 -20.67383475 23.44024847 -16.75 21.125 C-15.59128402 20.41726663 -14.43372952 19.70762815 -13.27734375 18.99609375 C-11.34574199 17.81963547 -9.40416078 16.65887067 -7.44140625 15.53515625 C-4.06230381 13.3960914 -2.34941326 12.06298294 -1.07421875 8.18359375 C-0.56030726 5.44622847 -0.19762814 2.7766754 0 0 Z " fill="#FCF6D0" transform="translate(353,233)"/>
<path d="M0 0 C2.475 0.99 2.475 0.99 5 2 C10.28 2.33 15.56 2.66 21 3 C21 28.41 21 53.82 21 80 C20.67 80 20.34 80 20 80 C20 54.92 20 29.84 20 4 C14.39 4 8.78 4 3 4 C1.68 3.34 0.36 2.68 -1 2 C-0.67 1.34 -0.34 0.68 0 0 Z " fill="#E6FCFE" transform="translate(140,129)"/>
<path d="M0 0 C5.22700249 2.84339256 10.3549312 5.7821379 15.37109375 8.984375 C17.03008742 10.05410012 17.03008742 10.05410012 19 11 C19 11.66 19 12.32 19 13 C19.763125 13.2475 20.52625 13.495 21.3125 13.75 C24.40974934 15.19058109 25.47511304 15.95022608 27 19 C27.23971845 21.72028325 27.1370618 24.25876407 27 27 C26.67 27 26.34 27 26 27 C25.67 24.69 25.34 22.38 25 20 C24.34 20.66 23.68 21.32 23 22 C20.375 22.125 20.375 22.125 18 22 C18 21.01 18 20.02 18 19 C18.66 18.67 19.32 18.34 20 18 C19.67 17.01 19.34 16.02 19 15 C18.34 15 17.68 15 17 15 C16.34 14.01 15.68 13.02 15 12 C14.401875 11.87625 13.80375 11.7525 13.1875 11.625 C9.93767816 10.69647947 8.32819092 8.3863957 6 6 C3.83379456 4.70480005 3.83379456 4.70480005 2 4 C2 3.34 2 2.68 2 2 C1.34 2 0.68 2 0 2 C0 1.34 0 0.68 0 0 Z " fill="#ECDA9A" transform="translate(326,214)"/>
<path d="M0 0 C0.33 0 0.66 0 1 0 C1.13061288 9.98773817 1.26101646 19.97547905 1.39115143 29.96322346 C1.45158224 34.6007278 1.51208566 39.23823118 1.57275391 43.87573242 C1.63127888 48.34960399 1.68961458 52.82347798 1.74781799 57.29735374 C1.77007784 59.00581132 1.79240637 60.714268 1.81480408 62.42272377 C1.84611787 64.81216835 1.87718942 67.20161596 1.90820312 69.59106445 C1.91755386 70.30028549 1.9269046 71.00950653 1.9365387 71.74021912 C1.97207295 74.49377311 2 77.24617567 2 80 C1.34 80 0.68 80 0 80 C0 53.6 0 27.2 0 0 Z " fill="#789CCE" transform="translate(161,132)"/>
<path d="M0 0 C-0.33 1.65 -0.66 3.3 -1 5 C-2.65 5 -4.3 5 -6 5 C-5.67 5.99 -5.34 6.98 -5 8 C0.94 8 6.88 8 13 8 C13 8.66 13 9.32 13 10 C12.154375 9.94199219 11.30875 9.88398438 10.4375 9.82421875 C2.66486023 9.51507967 -1.91503083 10.12883045 -8 15 C-8.99 15.495 -8.99 15.495 -10 16 C-10 14.02 -10 12.04 -10 10 C-9.34 9.67 -8.68 9.34 -8 9 C-8.12375 8.2575 -8.2475 7.515 -8.375 6.75 C-8 4 -8 4 -5.125 1.6875 C-2 0 -2 0 0 0 Z " fill="#FCF0EA" transform="translate(173,209)"/>
<path d="M0 0 C0 3 0 3 -2 6 C-2.66 6 -3.32 6 -4 6 C-4 6.66 -4 7.32 -4 8 C-5.57421875 9.55078125 -5.57421875 9.55078125 -7.6875 11.3125 C-13.64560374 16.00590834 -13.64560374 16.00590834 -17.9375 22.0625 C-19 24 -19 24 -22.0625 25.9375 C-25.21225644 27.70633249 -25.21225644 27.70633249 -25.875 30.75 C-25.91625 31.4925 -25.9575 32.235 -26 33 C-26.66 33 -27.32 33 -28 33 C-28.6592865 31.19476318 -28.6592865 31.19476318 -29 29 C-28.01930237 27.41802979 -28.01930237 27.41802979 -26.45141602 25.88378906 C-25.87073868 25.30348938 -25.29006134 24.7231897 -24.69178772 24.12530518 C-24.05228683 23.51161072 -23.41278595 22.89791626 -22.75390625 22.265625 C-22.108806 21.62759949 -21.46370575 20.98957397 -20.79905701 20.33221436 C-18.73161652 18.29280998 -16.64748956 16.27144473 -14.5625 14.25 C-13.15967502 12.87224568 -11.75796706 11.49335302 -10.35742188 10.11328125 C-6.9177806 6.72883194 -3.46307147 3.36046428 0 0 Z " fill="#FDEFED" transform="translate(187,254)"/>
<path d="M0 0 C0 0.33 0 0.66 0 1 C-0.69867188 1.04898438 -1.39734375 1.09796875 -2.1171875 1.1484375 C-3.02726562 1.22320312 -3.93734375 1.29796875 -4.875 1.375 C-5.77992188 1.44460937 -6.68484375 1.51421875 -7.6171875 1.5859375 C-10.6327161 2.10994739 -11.5181714 3.50159745 -13.58984375 5.64453125 C-15.53388639 8.89178253 -15.48889702 12.0038463 -15.5625 15.6875 C-15.62476043 18.15255178 -15.76559643 20.54024606 -16 23 C-16.66 23.33 -17.32 23.66 -18 24 C-18.10861833 21.29057607 -18.18758577 18.585561 -18.25 15.875 C-18.28351563 15.11445313 -18.31703125 14.35390625 -18.3515625 13.5703125 C-18.44389743 8.21488678 -17.55629623 5.25052717 -14 1 C-9.56429947 -1.91488892 -4.98147046 -0.80311288 0 0 Z " fill="#ECDB9E" transform="translate(297,195)"/>
<path d="M0 0 C0.33 1.32 0.66 2.64 1 4 C-1.05083898 7.07625847 -2.35439304 8.00184799 -5.4375 9.875 C-9.06590857 12.20090293 -11.04275669 14.08551338 -13 18 C-13.66 18 -14.32 18 -15 18 C-15 18.66 -15 19.32 -15 20 C-16.65 19.67 -18.3 19.34 -20 19 C-20.33 17.35 -20.66 15.7 -21 14 C-18.525 14.99 -18.525 14.99 -16 16 C-10.72 10.72 -5.44 5.44 0 0 Z " fill="#CC4E51" transform="translate(148,240)"/>
<path d="M0 0 C0.99 0.33 1.98 0.66 3 1 C-0.06190426 2.93844269 -3.12462869 4.87558576 -6.1875 6.8125 C-7.05181641 7.35970703 -7.91613281 7.90691406 -8.80664062 8.47070312 C-11.20171401 9.98482997 -13.60027033 11.49326779 -16 13 C-16.98613281 13.62261719 -17.97226562 14.24523437 -18.98828125 14.88671875 C-21 16 -21 16 -23 16 C-23.33 14.68 -23.66 13.36 -24 12 C-20.77467566 9.84978377 -18.75376279 9.62562713 -15 9 C-14.01 8.34 -13.02 7.68 -12 7 C-11.01 7 -10.02 7 -9 7 C-9 6.34 -9 5.68 -9 5 C-8.43410156 4.72285156 -7.86820312 4.44570313 -7.28515625 4.16015625 C-6.55167969 3.79792969 -5.81820313 3.43570312 -5.0625 3.0625 C-4.33160156 2.70285156 -3.60070312 2.34320313 -2.84765625 1.97265625 C-1.03750973 1.13628173 -1.03750973 1.13628173 0 0 Z " fill="#EAC042" transform="translate(329,257)"/>
<path d="M0 0 C0.66 0.33 1.32 0.66 2 1 C-3.94 6.94 -9.88 12.88 -16 19 C-16.33 18.01 -16.66 17.02 -17 16 C-16.34 16 -15.68 16 -15 16 C-15.33 14.68 -15.66 13.36 -16 12 C-15.43410156 11.67386719 -14.86820313 11.34773437 -14.28515625 11.01171875 C-13.18494141 10.35623047 -13.18494141 10.35623047 -12.0625 9.6875 C-11.33160156 9.25824219 -10.60070312 8.82898438 -9.84765625 8.38671875 C-7.70022588 7.04889746 -7.70022588 7.04889746 -7 4 C-4.78406817 2.28945613 -2.53809348 1.24678276 0 0 Z " fill="#FCECE7" transform="translate(161,225)"/>
<path d="M0 0 C3.83600582 4.50915108 6.88148692 9.42394988 10 14.4375 C13.2699963 19.67030348 16.54251904 24.88857983 20 30 C19.67 30.66 19.34 31.32 19 32 C7.42398565 17.30420873 7.42398565 17.30420873 6 10 C5.34 10 4.68 10 4 10 C3.67 8.68 3.34 7.36 3 6 C2.34 6 1.68 6 1 6 C0.67 4.02 0.34 2.04 0 0 Z " fill="#9CBCE4" transform="translate(190,64)"/>
<path d="M0 0 C-5.50829603 4.50783308 -9.78519656 7.8307181 -17.08984375 7.5390625 C-19.43044327 6.87852521 -20.44084001 5.82798068 -22 4 C-19.69 4 -17.38 4 -15 4 C-14.67 2.68 -14.34 1.36 -14 0 C-13.01 0 -12.02 0 -11 0 C-11 0.99 -11 1.98 -11 3 C-9.02463255 2.65213292 -9.02463255 2.65213292 -7 2 C-6.67 1.34 -6.34 0.68 -6 0 C-3 -1 -3 -1 0 0 Z " fill="#F5B823" transform="translate(306,274)"/>
<path d="M0 0 C0 2.31 0 4.62 0 7 C-1.175625 7.12375 -1.175625 7.12375 -2.375 7.25 C-3.674375 7.62125 -3.674375 7.62125 -5 8 C-5.69937532 9.31647119 -6.36729133 10.65022151 -7 12 C-8.33333333 12.33333333 -9.66666667 12.66666667 -11 13 C-12.28436734 14.9837767 -12.28436734 14.9837767 -13 17 C-14.32 16.67 -15.64 16.34 -17 16 C-14.3581833 13.32932797 -11.7108958 10.66414667 -9.0625 8 C-7.93038086 6.8553125 -7.93038086 6.8553125 -6.77539062 5.6875 C-6.05673828 4.965625 -5.33808594 4.24375 -4.59765625 3.5 C-3.93258057 2.8296875 -3.26750488 2.159375 -2.58227539 1.46875 C-1 0 -1 0 0 0 Z " fill="#DB4F53" transform="translate(166,223)"/>
<path d="M0 0 C-2.71494932 2.71494932 -5.21472069 2.76631285 -8.90625 3.4375 C-11.1997607 3.8668085 -11.1997607 3.8668085 -13 6 C-13.99 6 -14.98 6 -16 6 C-16.66 7.98 -17.32 9.96 -18 12 C-18.66 12 -19.32 12 -20 12 C-20 9.03 -20 6.06 -20 3 C-19.67 3.66 -19.34 4.32 -19 5 C-18.38253906 4.6390625 -17.76507813 4.278125 -17.12890625 3.90625 C-11.03113909 0.56500772 -6.93730602 -0.55946016 0 0 Z " fill="#E8F8FD" transform="translate(180,207)"/>
<path d="M0 0 C1.67552469 0.71507748 3.30695533 1.53145042 4.9296875 2.359375 C5.5896875 2.689375 6.2496875 3.019375 6.9296875 3.359375 C6.9296875 4.349375 6.9296875 5.339375 6.9296875 6.359375 C4.4296875 8.546875 4.4296875 8.546875 1.9296875 10.359375 C1.9296875 8.049375 1.9296875 5.739375 1.9296875 3.359375 C-0.5453125 2.864375 -0.5453125 2.864375 -3.0703125 2.359375 C-3.0703125 1.699375 -3.0703125 1.039375 -3.0703125 0.359375 C-4.0603125 0.648125 -5.0503125 0.936875 -6.0703125 1.234375 C-10.04781117 2.37312718 -14.05262243 3.37257393 -18.0703125 4.359375 C-13.14445788 -1.05906508 -6.95060495 -2.15075323 0 0 Z " fill="#E34750" transform="translate(184.0703125,218.640625)"/>
<path d="M0 0 C0.33 1.32 0.66 2.64 1 4 C0.34 4 -0.32 4 -1 4 C-1 6.64 -1 9.28 -1 12 C-1.99 12.33 -2.98 12.66 -4 13 C-4 15.97 -4 18.94 -4 22 C-6.3690929 19.6309071 -6.86655469 17.733375 -7.2421875 14.4375 C-6.74638644 9.44750224 -3.56222891 3.56222891 0 0 Z " fill="#528CE7" transform="translate(143,105)"/>
<path d="M0 0 C1.65 0 3.3 0 5 0 C5.33 0.99 5.66 1.98 6 3 C6.9590625 2.7215625 6.9590625 2.7215625 7.9375 2.4375 C12.07334611 1.84666484 15.8851173 2.41728241 20 3 C20 2.34 20 1.68 20 1 C20.99 1 21.98 1 23 1 C23 2.32 23 3.64 23 5 C20.29057607 5.10861833 17.585561 5.18758577 14.875 5.25 C13.73417969 5.30027344 13.73417969 5.30027344 12.5703125 5.3515625 C7.08492526 5.44613814 4.23048456 4.54117238 0 1 C0 0.67 0 0.34 0 0 Z " fill="#5790E8" transform="translate(139,127)"/>
<path d="M0 0 C0.33 0 0.66 0 1 0 C1.06058594 1.09699219 1.12117188 2.19398438 1.18359375 3.32421875 C1.26804498 4.77865654 1.35269066 6.23308305 1.4375 7.6875 C1.47681641 8.40873047 1.51613281 9.12996094 1.55664062 9.87304688 C1.78549249 15.52605131 1.78549249 15.52605131 3 21 C5.67977978 22.88533179 8.56961734 23.47021533 11.75 24.125 C12.54921875 24.29257812 13.3484375 24.46015625 14.171875 24.6328125 C14.77515625 24.75398438 15.3784375 24.87515625 16 25 C16 25.33 16 25.66 16 26 C11.42380243 26.07756267 7.48677582 25.89735516 3 25 C2.01 25.33 1.02 25.66 0 26 C0 25.01 0 24.02 0 23 C0.66 23 1.32 23 2 23 C1.67257812 22.36707031 1.34515625 21.73414063 1.0078125 21.08203125 C-0.36144606 16.8946475 -0.21471519 13.05939028 -0.125 8.6875 C-0.11597656 7.85154297 -0.10695313 7.01558594 -0.09765625 6.15429688 C-0.07420989 4.10274031 -0.03834266 2.05133223 0 0 Z " fill="#FEF4B4" transform="translate(278,256)"/>
<path d="M0 0 C0.66 0.66 1.32 1.32 2 2 C1.01 3.485 1.01 3.485 0 5 C0.99 5.33 1.98 5.66 3 6 C1.23174858 7.14981374 -0.53969521 8.29471922 -2.3125 9.4375 C-3.79169922 10.39462891 -3.79169922 10.39462891 -5.30078125 11.37109375 C-8 13 -8 13 -11 14 C-10.67 12.35 -10.34 10.7 -10 9 C-8.02 9 -6.04 9 -4 9 C-4.0825 8.071875 -4.165 7.14375 -4.25 6.1875 C-4 3 -4 3 -2 1.125 C-1.34 0.75375 -0.68 0.3825 0 0 Z " fill="#F7B922" transform="translate(343,243)"/>
<path d="M0 0 C0.66 0.33 1.32 0.66 2 1 C-1.3 6.28 -4.6 11.56 -8 17 C-8.33 15.68 -8.66 14.36 -9 13 C-9.33 13 -9.66 13 -10 13 C-10 10.66666667 -10 8.33333333 -10 6 C-9.0925 6.12375 -8.185 6.2475 -7.25 6.375 C-6.1775 6.25125 -5.105 6.1275 -4 6 C-1.57577814 3.11490087 -1.57577814 3.11490087 0 0 Z " fill="#F0F9FB" transform="translate(155,83)"/>
<path d="M0 0 C1.10868317 3.32604951 1.54177532 6.53058454 2 10 C0.35 9.67 -1.3 9.34 -3 9 C-3.66 10.65 -4.32 12.3 -5 14 C-5.66 14 -6.32 14 -7 14 C-7.33 15.32 -7.66 16.64 -8 18 C-8.66 18 -9.32 18 -10 18 C-10.33 18.99 -10.66 19.98 -11 21 C-11.33 20.34 -11.66 19.68 -12 19 C-11.01196289 17.02880859 -11.01196289 17.02880859 -9.47265625 14.6484375 C-8.92802734 13.79765625 -8.38339844 12.946875 -7.82226562 12.0703125 C-6.95118164 10.73613281 -6.95118164 10.73613281 -6.0625 9.375 C-5.48564453 8.4778125 -4.90878906 7.580625 -4.31445312 6.65625 C-2.88339217 4.43278339 -1.4450185 2.21441113 0 0 Z " fill="#5A8FE5" transform="translate(165,70)"/>
<path d="M0 0 C2.0625 1.6875 2.0625 1.6875 4 4 C3.83849795 7.39154295 3.41703243 8.58296757 1 11 C0.71125 11.66 0.4225 12.32 0.125 13 C-1.2363704 15.42021404 -2.46546555 15.98618622 -5 17 C-4.53343674 14.48055838 -3.93731079 12.90596619 -2.5 10.75 C-0.51156776 7.1045409 -0.34945924 4.123619 0 0 Z " fill="#FEFCE4" transform="translate(353,233)"/>
<path d="M0 0 C0.99 0.33 1.98 0.66 3 1 C1.69791667 2.43229167 0.39583333 3.86458333 -0.90625 5.296875 C-2.36024492 7.22360515 -2.36024492 7.22360515 -2 11 C-1.38125 11.268125 -0.7625 11.53625 -0.125 11.8125 C2 13 2 13 4 16 C2.68 16 1.36 16 0 16 C0 15.01 0 14.02 0 13 C-2.475 12.01 -2.475 12.01 -5 11 C-5.3125 8.3125 -5.3125 8.3125 -5 5 C-2.5 2.125 -2.5 2.125 0 0 Z " fill="#EFA7AB" transform="translate(161,276)"/>
<path d="M0 0 C0.66 0.33 1.32 0.66 2 1 C1.01 2.65 0.02 4.3 -1 6 C-1.556875 5.9278125 -2.11375 5.855625 -2.6875 5.78125 C-7.8359445 5.15508783 -12.81463038 4.90572055 -18 5 C-18.33 5.66 -18.66 6.32 -19 7 C-19 5.68 -19 4.36 -19 3 C-17.96359375 2.95101562 -16.9271875 2.90203125 -15.859375 2.8515625 C-14.48955792 2.77650403 -13.11976752 2.70095753 -11.75 2.625 C-11.06808594 2.5940625 -10.38617188 2.563125 -9.68359375 2.53125 C-5.9424347 2.3133184 -3.27216419 1.79189944 0 0 Z " fill="#EDFBFD" transform="translate(218,129)"/>
<path d="M0 0 C6.625 0.75 6.625 0.75 10 3 C10 3.66 10 4.32 10 5 C11.65 5.33 13.3 5.66 15 6 C15.33 7.32 15.66 8.64 16 10 C9.8034553 8.53239731 4.93130534 4.88851943 0 1 C0 0.67 0 0.34 0 0 Z " fill="#FDF8DE" transform="translate(327,214)"/>
<path d="M0 0 C1.18851563 0.00902344 2.37703125 0.01804688 3.6015625 0.02734375 C4.51679688 0.03894531 5.43203125 0.05054688 6.375 0.0625 C6.705 1.3825 7.035 2.7025 7.375 4.0625 C6.80523437 3.90523437 6.23546875 3.74796875 5.6484375 3.5859375 C1.2568804 2.57482298 -3.51262462 1.83207361 -7.54296875 4.1796875 C-9.38290973 5.68061584 -9.38290973 5.68061584 -11.625 8.0625 C-11.955 7.0725 -12.285 6.0825 -12.625 5.0625 C-11.305 4.4025 -9.985 3.7425 -8.625 3.0625 C-8.625 2.4025 -8.625 1.7425 -8.625 1.0625 C-5.74084117 -0.37957941 -3.20778472 -0.03144887 0 0 Z " fill="#E2F3FC" transform="translate(180.625,55.9375)"/>
<path d="M0 0 C0.99 0 1.98 0 3 0 C3.33 0.66 3.66 1.32 4 2 C4.99 1.34 5.98 0.68 7 0 C8.32 0 9.64 0 11 0 C11 1.32 11 2.64 11 4 C4.375 5 4.375 5 1 5 C0.34 4.01 -0.32 3.02 -1 2 C-0.67 1.34 -0.34 0.68 0 0 Z " fill="#F9FEF2" transform="translate(301,278)"/>
<path d="M0 0 C0.33 0 0.66 0 1 0 C1.45119171 8.10891776 1.5280714 15.0034482 -3 22 C-3.96831452 23.03071188 -4.96060267 24.0410145 -6 25 C-5.40450958 21.49529076 -4.45491753 18.54862171 -3 15.3125 C-0.88967984 10.22785178 -0.23281407 5.47113074 0 0 Z " fill="#FCF8CD" transform="translate(207,230)"/>
<path d="M0 0 C2.375 0.8125 2.375 0.8125 3.375 2.8125 C3.50915472 5.4848621 3.41818541 8.13500488 3.375 10.8125 C3.045 10.8125 2.715 10.8125 2.375 10.8125 C2.045 8.5025 1.715 6.1925 1.375 3.8125 C0.715 4.4725 0.055 5.1325 -0.625 5.8125 C-3.25 5.9375 -3.25 5.9375 -5.625 5.8125 C-5.625 2.8125 -5.625 2.8125 -4.4375 1.0625 C-2.625 -0.1875 -2.625 -0.1875 0 0 Z " fill="#F2D593" transform="translate(349.625,230.1875)"/>
<path d="M0 0 C2 2 2 2 2.3125 5.3125 C1.90037816 10.17553777 0.52202172 12.57310463 -3 15.875 C-3.99 16.431875 -3.99 16.431875 -5 17 C-5.99 16.67 -6.98 16.34 -8 16 C-6.6875 14.5 -6.6875 14.5 -5 13 C-4.01 13 -3.02 13 -2 13 C-1.34 8.71 -0.68 4.42 0 0 Z " fill="#EAA6AA" transform="translate(168,296)"/>
<path d="M0 0 C4.66666667 2.66666667 9.33333333 5.33333333 14 8 C10.61725734 9.12758089 9.23221777 8.81750262 5.8125 8.0625 C4.91144531 7.86785156 4.01039063 7.67320312 3.08203125 7.47265625 C2.05142578 7.23869141 2.05142578 7.23869141 1 7 C0.67 4.69 0.34 2.38 0 0 Z " fill="#EFD897" transform="translate(304,200)"/>
<path d="M0 0 C0.66 0 1.32 0 2 0 C0.37621488 4.72373854 -2.10993018 8.94181834 -5 13 C-5.33 13 -5.66 13 -6 13 C-6.66 10.69 -7.32 8.38 -8 6 C-7.4225 5.7525 -6.845 5.505 -6.25 5.25 C-3.86550111 4.06009525 -3.86550111 4.06009525 -1.875 1.875 C-0.946875 0.946875 -0.946875 0.946875 0 0 Z " fill="#E6F5FC" transform="translate(144,100)"/>
<path d="M0 0 C0.33 1.32 0.66 2.64 1 4 C0.01 4.33 -0.98 4.66 -2 5 C-2.1546875 6.6396875 -2.1546875 6.6396875 -2.3125 8.3125 C-2.97307727 11.85559629 -3.2027092 12.93243723 -6 15 C-6.66 14.67 -7.32 14.34 -8 14 C-6.6744419 10.37723685 -5.05653045 7.36494652 -2.875 4.1875 C-2.33617187 3.39730469 -1.79734375 2.60710937 -1.2421875 1.79296875 C-0.83226562 1.20128906 -0.42234375 0.60960938 0 0 Z " fill="#608CDA" transform="translate(152,91)"/>
<path d="M0 0 C-0.33 1.32 -0.66 2.64 -1 4 C-1 3.01 -1 2.02 -1 1 C-4.44184294 2.14728098 -5.08007717 3.03284654 -7 6 C-7.33 6.99 -7.66 7.98 -8 9 C-8.66 9 -9.32 9 -10 9 C-10.33 9.66 -10.66 10.32 -11 11 C-11.99 10.67 -12.98 10.34 -14 10 C-13.06862408 8.70391053 -12.1296434 7.41328368 -11.1875 6.125 C-10.66542969 5.40570313 -10.14335937 4.68640625 -9.60546875 3.9453125 C-6.64188659 0.35440274 -4.47557235 -0.24192283 0 0 Z " fill="#5D92E1" transform="translate(180,58)"/>
<path d="M0 0 C0.33 0 0.66 0 1 0 C0.67 6.6 0.34 13.2 0 20 C0.66 20.33 1.32 20.66 2 21 C1.67 21.99 1.34 22.98 1 24 C-1.65210826 22.15505512 -2.0533565 20.79419635 -2.875 17.625 C-3.47288892 11.60098714 -1.55602434 5.76696026 0 0 Z " fill="#DA4F5A" transform="translate(91,299)"/>
<path d="M0 0 C0.99 0.33 1.98 0.66 3 1 C-1.62 5.62 -6.24 10.24 -11 15 C-11.66 14.01 -12.32 13.02 -13 12 C-12.29875 11.649375 -11.5975 11.29875 -10.875 10.9375 C-7.68257321 8.78608195 -5.68989629 6.43065939 -3.33203125 3.42578125 C-2.67267578 2.72001953 -2.67267578 2.72001953 -2 2 C-1.34 2 -0.68 2 0 2 C0 1.34 0 0.68 0 0 Z " fill="#ECABAF" transform="translate(182,256)"/>
<path d="M0 0 C0 4.0333534 -1.60879918 5.83517538 -4 9 C-4.66 9 -5.32 9 -6 9 C-6.33 10.32 -6.66 11.64 -7 13 C-10 13 -10 13 -12 12 C-8.04 8.04 -4.08 4.08 0 0 Z " fill="#FC8A89" transform="translate(123,291)"/>
<path d="M0 0 C3.33266703 2.87821244 4.79794754 5.73206422 5.19140625 10.1484375 C5.3010325 14.54810442 5.06067267 18.0074467 3 22 C1.87129234 18.9901129 2.09599385 17.40483811 2.625 14.125 C3.2568801 9.92806795 2.09960489 7.6953046 0 4 C0 2.68 0 1.36 0 0 Z " fill="#E8AAAA" transform="translate(192,224)"/>
<path d="M0 0 C0.66 0.33 1.32 0.66 2 1 C0.90344712 2.31886772 -0.20253423 3.62990057 -1.3125 4.9375 C-1.92738281 5.66839844 -2.54226562 6.39929688 -3.17578125 7.15234375 C-5 9 -5 9 -8 10 C-7.67 8.02 -7.34 6.04 -7 4 C-6.34 4 -5.68 4 -5 4 C-5 3.34 -5 2.68 -5 2 C-2.625 0.9375 -2.625 0.9375 0 0 Z " fill="#F33C44" transform="translate(160,252)"/>
<path d="M0 0 C0 2.83967231 -0.40267181 5.23735711 -1 8 C-1.804375 8.12375 -2.60875 8.2475 -3.4375 8.375 C-4.283125 8.58125 -5.12875 8.7875 -6 9 C-6.33 9.66 -6.66 10.32 -7 11 C-7.99 10.67 -8.98 10.34 -10 10 C-6.7 6.7 -3.4 3.4 0 0 Z " fill="#FC8988" transform="translate(102,312)"/>
<path d="M0 0 C0 3 0 3 -1 5 C-2.134375 4.979375 -3.26875 4.95875 -4.4375 4.9375 C-9.00782755 4.9293241 -13.47238262 5.41308664 -18 6 C-14.72275128 4.17139021 -11.51995601 3.29276609 -7.875 2.4375 C-3.82447354 1.52957251 -3.82447354 1.52957251 0 0 Z " fill="#FDECEA" transform="translate(165,311)"/>
<path d="M0 0 C0 0.99 0 1.98 0 3 C-0.66 3 -1.32 3 -2 3 C-2 4.65 -2 6.3 -2 8 C-2.66 8 -3.32 8 -4 8 C-4 8.66 -4 9.32 -4 10 C-6.49064888 10.68707555 -8.37886292 11 -11 11 C-7.33333333 7.33333333 -3.66666667 3.66666667 0 0 Z " fill="#FB8282" transform="translate(153,261)"/>
<path d="M0 0 C1.670625 0.061875 1.670625 0.061875 3.375 0.125 C2.75 2 2.75 2 1.375 4.125 C-1.75 5.375 -1.75 5.375 -4.625 6.125 C-5.25 4.25 -5.25 4.25 -5.625 2.125 C-3.625 0.125 -3.625 0.125 0 0 Z " fill="#F1BE2D" transform="translate(310.625,266.875)"/>
<path d="M0 0 C1.8125 0.125 1.8125 0.125 4 1 C5.625 3.8125 5.625 3.8125 7 7 C7.4125 7.721875 7.825 8.44375 8.25 9.1875 C9 11 9 11 8 14 C6.66397562 11.85580015 5.33107996 9.70976582 4 7.5625 C3.6184375 6.95083984 3.236875 6.33917969 2.84375 5.70898438 C0 1.11328125 0 1.11328125 0 0 Z " fill="#EDF8FE" transform="translate(192,66)"/>
<path d="M0 0 C0.33 0 0.66 0 1 0 C0.67 5.28 0.34 10.56 0 16 C-0.99 16.33 -1.98 16.66 -3 17 C-2.36934845 11.2190275 -1.34844868 5.6556294 0 0 Z " fill="#E15058" transform="translate(95,281)"/>
<path d="M0 0 C0 2.31 0 4.62 0 7 C-1.98 7.33 -3.96 7.66 -6 8 C-5.57004265 4.99029853 -3.66008917 0 0 0 Z " fill="#E54653" transform="translate(166,223)"/>
<path d="M0 0 C0.33 0.66 0.66 1.32 1 2 C1.99 2.33 2.98 2.66 4 3 C5.1875 6.0625 5.1875 6.0625 6 9 C5.01 9 4.02 9 3 9 C0.75 6.1875 0.75 6.1875 -1 3 C-0.67 2.01 -0.34 1.02 0 0 Z " fill="#EAF7FD" transform="translate(207,87)"/>
<path d="M0 0 C0 0.33 0 0.66 0 1 C-2.10170656 1.53067341 -4.20647598 2.04922857 -6.3125 2.5625 C-7.48425781 2.85253906 -8.65601563 3.14257812 -9.86328125 3.44140625 C-13 4 -13 4 -16 3 C-11.82972023 -1.17027977 -5.53869904 -0.10860194 0 0 Z " fill="#EAA5A9" transform="translate(160,313)"/>
<path d="M0 0 C4.95 0 9.9 0 15 0 C12 3 12 3 9.84375 3.3984375 C8.68359375 3.38683594 8.68359375 3.38683594 7.5 3.375 C6.7265625 3.38273437 5.953125 3.39046875 5.15625 3.3984375 C3 3 3 3 0 0 Z " fill="#EABF4C" transform="translate(284,278)"/>
<path d="M0 0 C0.66 0 1.32 0 2 0 C0.61811547 3.21043882 -0.92421903 5.04936365 -3.625 7.25 C-4.57246094 8.03117188 -4.57246094 8.03117188 -5.5390625 8.828125 C-6.02117187 9.21484375 -6.50328125 9.6015625 -7 10 C-6.65930765 6.84859577 -6.41923159 5.39218439 -4.0625 3.1875 C-2 2 -2 2 0 2 C0 1.34 0 0.68 0 0 Z " fill="#ECA9AC" transform="translate(192,246)"/>
<path d="M0 0 C0.625 1.8125 0.625 1.8125 1 4 C-0.86783571 6.80175356 -2.30274481 8.11192137 -5 10 C-5.66 9.67 -6.32 9.34 -7 9 C-6.02180976 7.68677212 -5.0424189 6.37443848 -4.0625 5.0625 C-3.51722656 4.33160156 -2.97195312 3.60070312 -2.41015625 2.84765625 C-1 1 -1 1 0 0 Z " fill="#E3424E" transform="translate(148,240)"/>
<path d="M0 0 C0.66 0 1.32 0 2 0 C3.60725635 3.21451269 3.05748185 6.43612536 3 10 C3.66 10.33 4.32 10.66 5 11 C4.01 12.485 4.01 12.485 3 14 C2.34 14 1.68 14 1 14 C1.01160156 13.32453125 1.02320313 12.6490625 1.03515625 11.953125 C1.04417969 11.06109375 1.05320313 10.1690625 1.0625 9.25 C1.07990234 7.92742187 1.07990234 7.92742187 1.09765625 6.578125 C1.00826198 4.2181162 0.66912821 2.25501476 0 0 Z " fill="#FDEDEA" transform="translate(168,294)"/>
<path d="M0 0 C1.92199219 0.43119141 1.92199219 0.43119141 3.8828125 0.87109375 C5.36394531 1.21333984 5.36394531 1.21333984 6.875 1.5625 C6.875 1.8925 6.875 2.2225 6.875 2.5625 C2.29880243 2.64006267 -1.63822418 2.45985516 -6.125 1.5625 C-7.115 1.8925 -8.105 2.2225 -9.125 2.5625 C-9.125 1.5725 -9.125 0.5825 -9.125 -0.4375 C-5.95954798 -2.02022601 -3.38081122 -0.76836619 0 0 Z " fill="#FEF8D0" transform="translate(287.125,279.4375)"/>
<path d="M0 0 C-4.95 2.97 -4.95 2.97 -10 6 C-10 4.33333333 -10 2.66666667 -10 1 C-8.71073008 0.63720544 -7.41846728 0.28503302 -6.125 -0.0625 C-5.40570313 -0.25972656 -4.68640625 -0.45695313 -3.9453125 -0.66015625 C-2 -1 -2 -1 0 0 Z " fill="#EFBE43" transform="translate(343,251)"/>
<path d="M0 0 C1.04976964 3.14930893 1.10131595 5.38814456 1.0625 8.6875 C1.05347656 9.68136719 1.04445312 10.67523438 1.03515625 11.69921875 C1.02355469 12.45847656 1.01195312 13.21773437 1 14 C-1.86274764 11.13725236 -1.9615008 7.89611889 -2 4 C-1.0625 1.5 -1.0625 1.5 0 0 Z " fill="#618FDC" transform="translate(138,113)"/>
<path d="M0 0 C0.66 1.32 1.32 2.64 2 4 C0.6875 5.5 0.6875 5.5 -1 7 C-4 7 -4 7 -6 6 C-4.625 4.5 -4.625 4.5 -3 3 C-2.34 3 -1.68 3 -1 3 C-0.67 2.01 -0.34 1.02 0 0 Z " fill="#FC8A8B" transform="translate(109,305)"/>
<path d="M0 0 C0.79921875 0.01804688 1.5984375 0.03609375 2.421875 0.0546875 C3.02515625 0.07789063 3.6284375 0.10109375 4.25 0.125 C4.25 0.455 4.25 0.785 4.25 1.125 C2.7959375 1.2796875 2.7959375 1.2796875 1.3125 1.4375 C-3.23593839 2.07129879 -7.44417104 3.57255827 -11.75 5.125 C-8.21801071 1.23981178 -5.25908967 -0.15467911 0 0 Z " fill="#DF565D" transform="translate(177.75,217.875)"/>
<path d="M0 0 C1.4540625 0.0309375 1.4540625 0.0309375 2.9375 0.0625 C2.6075 0.7225 2.2775 1.3825 1.9375 2.0625 C0.6175 2.0625 -0.7025 2.0625 -2.0625 2.0625 C-2.0625 3.0525 -2.0625 4.0425 -2.0625 5.0625 C-4.0425 4.4025 -6.0225 3.7425 -8.0625 3.0625 C-7.423125 2.753125 -6.78375 2.44375 -6.125 2.125 C-2.0825 0.0425 -2.0825 0.0425 0 0 Z " fill="#FBFAE7" transform="translate(302.0625,191.9375)"/>
<path d="M0 0 C0.66 0.99 1.32 1.98 2 3 C0.95125002 5.62187494 0.35068687 6.79371361 -2.125 8.25 C-2.74375 8.4975 -3.3625 8.745 -4 9 C-3.35455571 5.51460083 -1.89865603 2.97180943 0 0 Z " fill="#FCF9D4" transform="translate(352,241)"/>
<path d="M0 0 C0.66 0.33 1.32 0.66 2 1 C1.38125 1.2475 0.7625 1.495 0.125 1.75 C-2.35068687 3.20628639 -2.95125002 4.37812506 -4 7 C-4.66 7 -5.32 7 -6 7 C-6.33 7.66 -6.66 8.32 -7 9 C-6.67 7.35 -6.34 5.7 -6 4 C-5.34 4 -4.68 4 -4 4 C-4 3.34 -4 2.68 -4 2 C-2.125 0.9375 -2.125 0.9375 0 0 Z " fill="#F2464E" transform="translate(183,230)"/>
<path d="M0 0 C5.66153846 1.47692308 5.66153846 1.47692308 7.375 4.125 C7.684375 5.053125 7.684375 5.053125 8 6 C6.68 6 5.36 6 4 6 C4 5.01 4 4.02 4 3 C2.68 3 1.36 3 0 3 C0 2.01 0 1.02 0 0 Z " fill="#9EC0EF" transform="translate(182,58)"/>
<path d="M0 0 C1.485 0.99 1.485 0.99 3 2 C6.14221967 1.68493373 6.14221967 1.68493373 9 1 C8.67 1.99 8.34 2.98 8 4 C7.34 4 6.68 4 6 4 C6 4.66 6 5.32 6 6 C4.35 5.67 2.7 5.34 1 5 C0.67 3.35 0.34 1.7 0 0 Z " fill="#E34445" transform="translate(127,254)"/>
<path d="M0 0 C1.65 0 3.3 0 5 0 C4.2575 0.556875 3.515 1.11375 2.75 1.6875 C0.08292005 3.93027178 -1.91556232 6.22074975 -4 9 C-4 7.02 -4 5.04 -4 3 C-3.01 3 -2.02 3 -1 3 C-0.67 2.01 -0.34 1.02 0 0 Z " fill="#FDDEDB" transform="translate(105,245)"/>
<path d="M0 0 C3.09415757 0.42656082 6.05880129 0.92998438 9 2 C10.5625 4.625 10.5625 4.625 11 7 C7.22272911 5.18690997 3.62730178 3.0926741 0 1 C0 0.67 0 0.34 0 0 Z " fill="#FDF8DC" transform="translate(300,197)"/>
<path d="M0 0 C0 0.66 0 1.32 0 2 C-0.99 2 -1.98 2 -3 2 C-3 2.99 -3 3.98 -3 5 C-4.98 5 -6.96 5 -9 5 C-6.45523312 2.20075644 -3.92372883 0 0 0 Z " fill="#FDF0B9" transform="translate(312,271)"/>
<path d="M0 0 C1.98 0 3.96 0 6 0 C6 0.99 6 1.98 6 3 C6.99 3 7.98 3 9 3 C9 3.66 9 4.32 9 5 C5.22454612 3.90931332 2.52956528 3.0916909 0 0 Z " fill="#FEF8DB" transform="translate(311,204)"/>
<path d="M0 0 C0.33 0 0.66 0 1 0 C1.08131463 1.43655854 1.13933559 2.8744483 1.1875 4.3125 C1.23970703 5.51326172 1.23970703 5.51326172 1.29296875 6.73828125 C0.93801608 9.47851584 0.10633718 10.29171079 -2 12 C-1 3.42857143 -1 3.42857143 0 0 Z " fill="#D95859" transform="translate(98,268)"/>
<path d="M0 0 C0 2.62113708 -0.31292445 4.50935112 -1 7 C-0.34 7 0.32 7 1 7 C1 7.66 1 8.32 1 9 C-0.65 9 -2.3 9 -4 9 C-4 8.34 -4 7.68 -4 7 C-3.34 7 -2.68 7 -2 7 C-2.04125 6.21625 -2.0825 5.4325 -2.125 4.625 C-2 2 -2 2 0 0 Z " fill="#F8BA25" transform="translate(208,246)"/>
<path d="M0 0 C-0.60183749 2.02045442 -1.27306096 4.02111039 -2 6 C-2.99 6.495 -2.99 6.495 -4 7 C-4.66 6.67 -5.32 6.34 -6 6 C-4.90218919 2.70656758 -3.7827394 0 0 0 Z " fill="#528BE8" transform="translate(150,99)"/>
<path d="M0 0 C0 3 0 3 -2.5 5.6875 C-3.325 6.450625 -4.15 7.21375 -5 8 C-5.66 7.67 -6.32 7.34 -7 7 C-4.69 4.69 -2.38 2.38 0 0 Z " fill="#FD7E7F" transform="translate(123,291)"/>
<path d="M0 0 C-1 3 -1 3 -4 5 C-6.1875 4.625 -6.1875 4.625 -8 4 C-2.25 0 -2.25 0 0 0 Z " fill="#FDF5CA" transform="translate(326,262)"/>
<path d="M0 0 C0.33 0.66 0.66 1.32 1 2 C2.65 1.34 4.3 0.68 6 0 C1.25 4.875 1.25 4.875 -1 6 C-1.042721 4.33388095 -1.04063832 2.66617115 -1 1 C-0.67 0.67 -0.34 0.34 0 0 Z " fill="#F53F47" transform="translate(163,246)"/>
<path d="M0 0 C2.99324263 1.0975223 3.84610901 1.67682892 5.25 4.625 C5.4975 5.40875 5.745 6.1925 6 7 C3.00675737 5.9024777 2.15389099 5.32317108 0.75 2.375 C0.5025 1.59125 0.255 0.8075 0 0 Z " fill="#E7F7FD" transform="translate(216,104)"/>
<path d="M0 0 C0.66 0.33 1.32 0.66 2 1 C0.35 3.64 -1.3 6.28 -3 9 C-3.33 8.01 -3.66 7.02 -4 6 C-2.0625 2.8125 -2.0625 2.8125 0 0 Z " fill="#E0F4FC" transform="translate(155,83)"/>
<path d="M0 0 C0.99 0.33 1.98 0.66 3 1 C0.03 3.475 0.03 3.475 -3 6 C-2.625 3.5625 -2.625 3.5625 -2 1 C-1.34 0.67 -0.68 0.34 0 0 Z " fill="#F33842" transform="translate(115,296)"/>
<path d="M0 0 C0.99 0.33 1.98 0.66 3 1 C0.03 3.475 0.03 3.475 -3 6 C-3.66 5.01 -4.32 4.02 -5 3 C-4.360625 2.690625 -3.72125 2.38125 -3.0625 2.0625 C-1.06389179 1.1654837 -1.06389179 1.1654837 0 0 Z " fill="#F33B42" transform="translate(126,285)"/>
<path d="M0 0 C0.625 1.875 0.625 1.875 1 4 C0.34 4.66 -0.32 5.32 -1 6 C-3.125 5.625 -3.125 5.625 -5 5 C-3.35 3.35 -1.7 1.7 0 0 Z " fill="#FDF2F3" transform="translate(193,248)"/>
<path d="M0 0 C2.475 0.99 2.475 0.99 5 2 C5 2.99 5 3.98 5 5 C2.03 4.505 2.03 4.505 -1 4 C-0.67 2.68 -0.34 1.36 0 0 Z " fill="#F5F9F2" transform="translate(105,240)"/>
</svg>
