<svg width="196" height="37" viewBox="0 0 196 37" fill="none" xmlns="http://www.w3.org/2000/svg">
<g clip-path="url(#clip0_92_681)">
<path d="M80.8336 18.1527L85.582 7.14221H90.0008L94.7609 18.1527H91.2129L90.3774 16.1155H85.1583L84.3051 18.1527H80.8395H80.8336ZM86.3174 13.3364H89.2418L88.6004 11.7937L87.8767 9.939H87.6649L86.9588 11.7937L86.3174 13.3364Z" fill="#1C3E37"/>
<path d="M95.0786 18.1527V7.14221H98.1618V18.1527H95.0786Z" fill="#1C3E37"/>
<path d="M99.1504 18.1527V7.14221H105.24C107.853 7.14221 109.494 8.63776 109.494 11.252C109.494 13.8663 107.853 15.3736 105.24 15.3736H102.234V18.1527H99.1445H99.1504ZM102.239 9.92133V12.6004H104.899C105.982 12.6004 106.423 12.3884 106.423 11.252C106.423 10.1156 105.982 9.92133 104.899 9.92133H102.239Z" fill="#1C3E37"/>
<path d="M109.983 12.6474C109.983 9.21472 112.248 6.97729 116.073 6.97729C119.897 6.97729 122.227 9.20883 122.227 12.6474C122.227 16.086 119.997 18.3175 116.073 18.3175C112.148 18.3175 109.983 16.0801 109.983 12.6474ZM118.95 12.6474C118.95 10.463 118.308 9.93894 116.078 9.93894C113.848 9.93894 113.272 10.463 113.272 12.6474C113.272 14.8318 113.848 15.3559 116.078 15.3559C118.308 15.3559 118.95 14.8318 118.95 12.6474Z" fill="#1C3E37"/>
<path d="M126.699 18.1527V9.92133H122.804V7.14221H133.66V9.92133H129.782V18.1527H126.699Z" fill="#1C3E37"/>
<path d="M134.395 18.1527V7.14221H137.484V11.2344H142.609V7.14221H145.698V18.1527H142.609V14.0135H137.484V18.1527H134.395Z" fill="#1C3E37"/>
<path d="M146.669 18.1527V7.14221H156.436V9.92133H149.752V11.2344H156.189V13.9958H149.752V15.3736H156.436V18.1527H146.669Z" fill="#1C3E37"/>
<path d="M157.142 12.6474C157.142 9.21472 159.408 6.97729 163.232 6.97729C167.057 6.97729 169.387 9.20883 169.387 12.6474C169.387 16.086 167.157 18.3175 163.232 18.3175C159.308 18.3175 157.142 16.0801 157.142 12.6474ZM166.11 12.6474C166.11 10.463 165.468 9.93894 163.238 9.93894C161.008 9.93894 160.432 10.463 160.432 12.6474C160.432 14.8318 161.008 15.3559 163.238 15.3559C165.468 15.3559 166.11 14.8318 166.11 12.6474Z" fill="#1C3E37"/>
<path d="M170.128 14.3255V14.2254H173.217V14.5727C173.217 15.3087 173.482 15.5089 175.547 15.5089C177.419 15.5089 177.619 15.3617 177.619 14.8671C177.619 14.4727 177.407 14.3078 176.501 14.1959L173.053 13.7367C170.999 13.4599 169.969 12.3589 169.969 10.5807C169.969 8.80254 171.335 6.98315 175.306 6.98315C178.801 6.98315 180.478 8.51403 180.478 10.9752V11.0753H177.389V10.828C177.389 10.039 177.042 9.77405 174.977 9.77405C173.4 9.77405 173.053 9.98602 173.053 10.4629C173.053 10.8103 173.253 10.9693 173.841 11.0517L177.289 11.5581C179.984 11.9526 180.708 13.3304 180.708 14.7435C180.708 16.6335 179.26 18.3116 175.553 18.3116C172.188 18.3116 170.134 17.1105 170.134 14.3196L170.128 14.3255Z" fill="#1C3E37"/>
<path d="M181.437 18.1527V7.14221H184.526V18.1527H181.437Z" fill="#1C3E37"/>
<path d="M185.427 14.3255V14.2254H188.516V14.5727C188.516 15.3087 188.78 15.5089 190.846 15.5089C192.717 15.5089 192.917 15.3617 192.917 14.8671C192.917 14.4727 192.705 14.3078 191.799 14.1959L188.351 13.7367C186.297 13.4599 185.268 12.3589 185.268 10.5807C185.268 8.80254 186.633 6.98315 190.604 6.98315C194.1 6.98315 195.776 8.51403 195.776 10.9752V11.0753H192.687V10.828C192.687 10.039 192.34 9.77405 190.275 9.77405C188.698 9.77405 188.351 9.98602 188.351 10.4629C188.351 10.8103 188.551 10.9693 189.139 11.0517L192.587 11.5581C195.282 11.9526 196.006 13.3304 196.006 14.7435C196.006 16.6335 194.558 18.3116 190.852 18.3116C187.486 18.3116 185.432 17.1105 185.432 14.3196L185.427 14.3255Z" fill="#1C3E37"/>
<path d="M81.322 33.6909V22.6804H84.411V30.9118H90.7657V33.6909H81.322Z" fill="#1C3E37"/>
<path d="M90.9246 33.6909L95.6729 22.6804H100.092L104.852 33.6909H101.304L100.468 31.6537H95.2493L94.3961 33.6909H90.9304H90.9246ZM96.4084 28.8746H99.3327L98.6914 27.3319L97.9676 25.4772H97.7558L97.0497 27.3319L96.4084 28.8746Z" fill="#1C3E37"/>
<path d="M105.175 33.6909V22.6804H112.171C114.554 22.6804 115.737 23.6166 115.737 25.3418C115.737 26.7549 114.996 27.7558 112.995 27.8383V28.0031C115.196 28.0856 116.249 29.1042 116.249 30.6292C116.249 32.4839 115.178 33.685 112.554 33.685H105.181L105.175 33.6909ZM108.247 26.855H111.842C112.466 26.855 112.648 26.6725 112.648 26.1661C112.648 25.6597 112.401 25.4595 111.76 25.4595H108.247V26.855ZM108.247 30.9118H112.154C112.895 30.9118 113.125 30.7646 113.125 30.1405C113.125 29.5164 112.913 29.3868 112.154 29.3868H108.247V30.9177V30.9118Z" fill="#1C3E37"/>
<path d="M116.814 29.8638V29.7637H119.903V30.1111C119.903 30.8471 120.168 31.0473 122.233 31.0473C124.104 31.0473 124.304 30.9001 124.304 30.4055C124.304 30.011 124.092 29.8461 123.186 29.7342L119.738 29.275C117.685 28.9983 116.655 27.8972 116.655 26.119C116.655 24.3409 118.02 22.5215 121.992 22.5215C125.487 22.5215 127.164 24.0524 127.164 26.5135V26.6136H124.075V26.3663C124.075 25.5773 123.728 25.3124 121.662 25.3124C120.085 25.3124 119.738 25.5243 119.738 26.0013C119.738 26.3487 119.938 26.5076 120.527 26.5901L123.975 27.0964C126.67 27.4909 127.393 28.8687 127.393 30.2818C127.393 32.1719 125.946 33.8499 122.239 33.8499C118.873 33.8499 116.82 32.6488 116.82 29.8579L116.814 29.8638Z" fill="#1C3E37"/>
<path d="M47.2774 36.1344L45.6711 36.052L45.3357 36.8586L44.8297 36.8351L46.3478 33.2375L46.9009 33.267L48.0423 37L47.5363 36.9764L47.2833 36.1403L47.2774 36.1344ZM47.1598 35.7399L46.589 33.844L45.83 35.6693L47.1598 35.734V35.7399Z" fill="#1C3E37"/>
<path d="M49.4133 33.3141L49.3898 37.0058H48.9073L48.9249 33.3141H49.4074H49.4133Z" fill="#1C3E37"/>
<path d="M52.9084 35.0687C52.7083 35.2807 52.3906 35.3926 51.9611 35.4102L51.255 35.4397L51.3197 36.9764L50.8372 36.9941L50.6901 33.3082L51.8787 33.2611C52.2964 33.2435 52.6142 33.3318 52.8378 33.5261C53.0614 33.7204 53.179 33.9736 53.1908 34.2915C53.2026 34.5977 53.1084 34.8568 52.9084 35.0687ZM52.5318 34.8155C52.6554 34.6919 52.7083 34.527 52.7024 34.3092C52.6848 33.8558 52.4141 33.6379 51.8904 33.6556L51.1844 33.6851L51.2373 35.0393L51.9434 35.0098C52.2082 34.9981 52.4082 34.9333 52.5259 34.8097L52.5318 34.8155Z" fill="#1C3E37"/>
<path d="M55.2914 36.523C54.9913 36.3994 54.7442 36.2051 54.5441 35.9342C54.3441 35.6634 54.2264 35.3572 54.1793 34.998C54.1322 34.6389 54.1793 34.3092 54.3029 34.003C54.4264 33.6968 54.6265 33.4495 54.8854 33.2552C55.1443 33.0609 55.4444 32.9431 55.7856 32.9019C56.1269 32.8607 56.4505 32.9019 56.7506 33.0256C57.0507 33.1492 57.2978 33.3435 57.492 33.6085C57.6861 33.8734 57.8097 34.1855 57.8509 34.5447C57.8921 34.9038 57.8509 35.2395 57.7273 35.5397C57.5979 35.84 57.4096 36.0932 57.1448 36.2875C56.8859 36.4818 56.58 36.5996 56.2387 36.6408C55.8974 36.682 55.5797 36.6408 55.2796 36.5171L55.2914 36.523ZM56.8624 35.9696C57.0507 35.8283 57.1919 35.6339 57.2802 35.3984C57.3684 35.1629 57.3978 34.898 57.3625 34.6094C57.3272 34.315 57.239 34.0677 57.0919 33.8617C56.9506 33.6556 56.7682 33.5084 56.5505 33.4142C56.3328 33.32 56.0916 33.2905 55.8327 33.32C55.5738 33.3494 55.3502 33.4377 55.1619 33.5849C54.9736 33.7321 54.8324 33.9205 54.7442 34.1502C54.6559 34.3798 54.6265 34.6448 54.6618 34.9392C54.6971 35.2277 54.7854 35.4809 54.9325 35.6869C55.0737 35.893 55.2561 36.0461 55.4797 36.1403C55.6974 36.2345 55.9386 36.264 56.1916 36.2345C56.4446 36.2051 56.6682 36.1168 56.8624 35.9696Z" fill="#1C3E37"/>
<path d="M59.7573 35.6339L61.0165 35.3572L61.0988 35.7399L59.369 36.1167L58.5805 32.5133L59.0512 32.4132L59.7573 35.6339Z" fill="#1C3E37"/>
<path d="M64.1349 33.9323L62.6169 34.4563L62.6051 35.3278L62.1226 35.4926L62.1815 31.5889L62.7051 31.4064L65.1587 34.4387L64.6762 34.6035L64.129 33.9264L64.1349 33.9323ZM63.8819 33.6085L62.6404 32.0658L62.6228 34.0442L63.8819 33.6085Z" fill="#1C3E37"/>
<path d="M67.5182 31.1945C67.6594 31.2121 67.7888 31.2651 67.9124 31.3417C68.036 31.4182 68.136 31.5242 68.2066 31.6537C68.3007 31.8127 68.3478 31.9835 68.3419 32.1601C68.336 32.3367 68.2772 32.5075 68.1654 32.6782C68.0536 32.8431 67.8889 32.9903 67.677 33.1198L66.4944 33.8205L64.6115 30.6469L65.7471 29.9698C65.9648 29.8402 66.1649 29.7696 66.359 29.7519C66.5532 29.7343 66.7238 29.7637 66.8709 29.8402C67.018 29.9168 67.1357 30.0287 67.2299 30.1817C67.3417 30.3702 67.3829 30.5586 67.3534 30.7411C67.324 30.9236 67.2416 31.0944 67.1063 31.2475C67.2358 31.1945 67.3652 31.1827 67.5064 31.2004L67.5182 31.1945ZM65.8413 31.7715L66.5356 31.3593C66.7297 31.2416 66.8533 31.112 66.9062 30.9531C66.9592 30.8 66.9357 30.641 66.8415 30.482C66.7474 30.3231 66.6179 30.2288 66.4591 30.1994C66.3002 30.17 66.1178 30.2171 65.9177 30.3348L65.2293 30.7411L65.8413 31.7715ZM67.8359 32.3662C67.8948 32.2013 67.8712 32.0306 67.7712 31.8598C67.6653 31.6832 67.5241 31.5831 67.3417 31.5536C67.1593 31.5242 66.9651 31.5713 66.765 31.6891L66.0472 32.113L66.7121 33.2317L67.4417 32.796C67.6476 32.6723 67.783 32.531 67.8359 32.3662Z" fill="#1C3E37"/>
<path d="M70.4131 30.8647C70.2248 30.953 70.0306 30.9942 69.8482 30.9766C69.66 30.9589 69.4893 30.8883 69.3363 30.7587L69.6717 30.3701C69.8129 30.4702 69.9718 30.5114 70.1424 30.4938C70.3131 30.4761 70.4778 30.376 70.6308 30.1935C70.7779 30.0168 70.8544 29.8461 70.8544 29.6695C70.8544 29.4928 70.7838 29.3456 70.6485 29.2337C70.5425 29.1454 70.4308 29.0983 70.3131 29.0983C70.1954 29.0983 70.0836 29.1278 69.9718 29.1866C69.86 29.2455 69.7247 29.3338 69.554 29.4457C69.3481 29.587 69.1716 29.6989 69.0304 29.7695C68.8892 29.8402 68.7303 29.8696 68.5597 29.8638C68.389 29.852 68.2184 29.7754 68.0419 29.6282C67.8889 29.4987 67.7889 29.3456 67.7359 29.1631C67.683 28.9864 67.6888 28.798 67.7359 28.5978C67.7947 28.4035 67.8948 28.2151 68.0536 28.0326C68.2772 27.7676 68.5302 27.6087 68.8009 27.5557C69.0716 27.5027 69.3305 27.5557 69.5658 27.7205L69.2245 28.1209C69.1069 28.0444 68.9656 28.0208 68.795 28.0503C68.6303 28.0797 68.4773 28.1739 68.3361 28.3388C68.2066 28.4919 68.136 28.6508 68.136 28.8157C68.136 28.9806 68.2007 29.1219 68.342 29.2455C68.442 29.3338 68.5538 29.3751 68.6656 29.3692C68.7774 29.3692 68.8892 29.3397 68.9951 29.2808C69.101 29.2279 69.2422 29.1395 69.4128 29.0218C69.6247 28.8805 69.8012 28.7745 69.9424 28.7038C70.0836 28.6332 70.2483 28.6037 70.419 28.6096C70.5896 28.6155 70.7661 28.6979 70.9427 28.851C71.078 28.9688 71.178 29.116 71.2369 29.2867C71.2957 29.4634 71.3016 29.6518 71.2545 29.8579C71.2074 30.0639 71.1015 30.2641 70.9368 30.4584C70.7779 30.6469 70.6073 30.7823 70.4131 30.8706V30.8647Z" fill="#1C3E37"/>
<path d="M37.8632 32.4839C37.2748 32.4839 36.6864 32.4781 36.0921 32.4604C18.4932 32.0424 4.85426 25.5656 5.03666 17.711C5.1308 13.7013 8.67294 10.1391 15.0099 7.68382C20.8821 5.41106 28.6077 4.26291 36.757 4.45721C44.9121 4.65151 52.573 6.16472 58.3275 8.71421C64.541 11.4698 67.9066 15.1969 67.8124 19.2066C67.7183 23.2163 64.1762 26.7785 57.8392 29.2338C52.3965 31.3417 45.3593 32.4839 37.8632 32.4839ZM34.9742 7.7427C27.884 7.7427 21.2705 8.80253 16.2044 10.7691C11.2678 12.6827 8.40227 15.244 8.34343 17.7876C8.22576 22.8453 19.623 28.7569 36.1686 29.1455C43.906 29.328 51.1668 28.2623 56.6447 26.1426C61.5813 24.229 64.4468 21.6677 64.5057 19.1241C64.5645 16.5747 61.8285 13.8839 56.986 11.7406C51.6198 9.36189 44.4061 7.94878 36.6805 7.76625C36.1098 7.75447 35.5449 7.74859 34.98 7.74859L34.9742 7.7427Z" fill="#1C3E37"/>
<path d="M38.075 11.6818H34.7682V25.2418H38.075V11.6818Z" fill="#1C3E37"/>
<path d="M46.9337 12.5547L24.7059 21.2806L25.9136 24.3611L48.1414 15.6352L46.9337 12.5547Z" fill="#1C3E37"/>
<path d="M25.3258 12.3248L24.1187 15.4055L47.5148 24.5853L48.7219 21.5047L25.3258 12.3248Z" fill="#1C3E37"/>
<path d="M64.2231 12.0174C58.1332 7.63671 49.5603 4.06271 40.0989 1.94304C30.6376 -0.170738 21.3645 -0.57112 13.9801 0.800777C6.12505 2.26688 1.22961 5.62891 0.194036 10.2686C-1.86534 19.4774 12.4503 30.2465 32.7734 34.7803C36.5391 35.6222 40.2696 36.1875 43.8588 36.4819L45.3062 33.2729C41.5111 33.0256 37.5276 32.4545 33.4913 31.5536C13.7506 27.1377 2.00041 17.3577 3.42432 10.987C4.13628 7.77213 8.20796 5.24031 14.5862 4.05094C17.2634 3.55635 20.223 3.30316 23.365 3.30316C28.3605 3.30316 33.8208 3.93318 39.3752 5.16965C48.4129 7.18922 56.5446 10.5748 62.2873 14.7023C67.5593 18.4941 70.1659 22.5097 69.448 25.7304C69.3421 26.1956 69.1715 26.6313 68.9361 27.0552C69.042 26.9846 69.1656 26.9316 69.3304 26.9316C69.8599 26.9316 70.0894 27.385 70.0364 27.7912C70.0364 27.856 70.0364 27.9208 70.0188 27.9855C70.1659 27.9267 70.3306 27.8854 70.5189 27.8854C71.2132 27.8854 71.6133 28.3447 71.7133 28.8746C72.1605 28.1092 72.49 27.3025 72.6783 26.4488C73.708 21.8091 70.7072 16.6865 64.2172 12.0115L64.2231 12.0174Z" fill="#1C3E37"/>
</g>
<defs>
<clipPath id="clip0_92_681">
<rect width="196" height="37" fill="white"/>
</clipPath>
</defs>
</svg>
